<?xml version="1.0" encoding="UTF-8" standalone="no"?>
<!-- Created with Inkscape (http://www.inkscape.org/) -->

<svg
   version="1.1"
   id="svg840"
   width="2974.3054"
   height="655.37964"
   viewBox="0 0 2974.3054 655.37964"
   sodipodi:docname="mathshots.svg"
   inkscape:version="1.1.1 (c3084ef, 2021-09-22)"
   inkscape:export-filename="/Users/sbondaryev/Downloads/R (1).png"
   inkscape:export-xdpi="300"
   inkscape:export-ydpi="300"
   xmlns:inkscape="http://www.inkscape.org/namespaces/inkscape"
   xmlns:sodipodi="http://sodipodi.sourceforge.net/DTD/sodipodi-0.dtd"
   xmlns="http://www.w3.org/2000/svg"
   xmlns:svg="http://www.w3.org/2000/svg">
  <defs
     id="defs844">
    <inkscape:path-effect
       effect="spiro"
       id="path-effect12271"
       is_visible="true"
       lpeversion="1" />
    <inkscape:path-effect
       effect="spiro"
       id="path-effect12267"
       is_visible="true"
       lpeversion="1" />
    <inkscape:path-effect
       effect="spiro"
       id="path-effect12263"
       is_visible="true"
       lpeversion="1" />
    <inkscape:path-effect
       effect="spiro"
       id="path-effect12259"
       is_visible="true"
       lpeversion="1" />
    <inkscape:path-effect
       effect="spiro"
       id="path-effect12255"
       is_visible="true"
       lpeversion="1" />
    <inkscape:path-effect
       effect="spiro"
       id="path-effect12251"
       is_visible="true"
       lpeversion="1" />
    <inkscape:path-effect
       effect="spiro"
       id="path-effect1677"
       is_visible="true"
       lpeversion="1" />
    <inkscape:path-effect
       effect="spiro"
       id="path-effect1640"
       is_visible="true"
       lpeversion="1" />
    <inkscape:path-effect
       effect="spiro"
       id="path-effect1443"
       is_visible="true"
       lpeversion="1" />
    <inkscape:path-effect
       effect="spiro"
       id="path-effect1435"
       is_visible="true"
       lpeversion="1" />
    <inkscape:path-effect
       effect="spiro"
       id="path-effect1431"
       is_visible="true"
       lpeversion="1" />
    <inkscape:path-effect
       effect="spiro"
       id="path-effect1423"
       is_visible="true"
       lpeversion="1" />
    <inkscape:path-effect
       effect="spiro"
       id="path-effect1386"
       is_visible="true"
       lpeversion="1" />
    <inkscape:path-effect
       effect="spiro"
       id="path-effect1039"
       is_visible="true"
       lpeversion="1" />
    <inkscape:path-effect
       effect="spiro"
       id="path-effect1035"
       is_visible="true"
       lpeversion="1" />
  </defs>
  <sodipodi:namedview
     id="namedview842"
     pagecolor="#ffffff"
     bordercolor="#666666"
     borderopacity="1.0"
     inkscape:pageshadow="2"
     inkscape:pageopacity="0.0"
     inkscape:pagecheckerboard="0"
     showgrid="false"
     inkscape:zoom="0.13360788"
     inkscape:cx="1523.1137"
     inkscape:cy="812.07784"
     inkscape:window-width="1401"
     inkscape:window-height="847"
     inkscape:window-x="40"
     inkscape:window-y="25"
     inkscape:window-maximized="0"
     inkscape:current-layer="g846" />
  <g
     inkscape:groupmode="layer"
     inkscape:label="Image"
     id="g846"
     transform="translate(-208.39286,-160.22822)">
    <path
       style="fill:none;stroke:#000000;stroke-width:20;stroke-linecap:butt;stroke-linejoin:miter;stroke-miterlimit:4;stroke-dasharray:none;stroke-opacity:1"
       d="m 480.66403,252.90458 c -5.95569,-15.29805 -14.79053,-29.4696 -25.90437,-41.55194 -14.18748,-15.42384 -32.14911,-27.42471 -51.97967,-34.20177 -25.77106,-8.80721 -54.05874,-8.63807 -80.62669,-2.64985 -29.30991,6.60624 -57.66789,20.73061 -76.98884,43.73961 -13.2801,15.81504 -21.89681,35.48658 -24.58663,55.96197 -2.68982,20.47538 0.54724,41.68535 9.15836,60.45568 7.9342,17.29479 20.3469,32.44706 35.44364,44.02937 15.09674,11.5823 32.8333,19.61427 51.3926,23.81114 23.67759,5.35428 48.73696,4.45482 71.97721,-2.55857 23.24024,-7.01338 44.60862,-20.1219 61.41041,-37.64322 17.60045,-18.35417 29.90957,-40.9964 42.97052,-62.81527 13.54764,-22.63191 28.17369,-44.7393 45.65617,-64.49037 17.74605,-20.04885 38.59075,-37.69746 62.66532,-49.41469 21.8609,-10.63983 46.68691,-16.22425 70.72231,-12.56306 29.46812,4.48873 55.85714,22.80877 73.40795,46.90208 19.15198,26.29136 28.41838,59.88017 24.17092,92.1291 -3.68709,27.99433 -17.82744,54.91264 -40.28486,72.02818 -19.5841,14.92568 -44.36102,21.84278 -68.93186,23.45105 -31.26776,2.04661 -63.01676,-4.12643 -91.31234,-17.58829 -20.12761,-9.57588 -38.76785,-23.04576 -51.9227,-41.03932 -3.19103,-4.36478 -6.04655,-8.97479 -8.53306,-13.77596"
       id="path1421"
       sodipodi:nodetypes="csssssssssssssssssc"
       inkscape:original-d="m 480.66403,252.90458 c -6.26589,-14.51671 -19.93561,-27.03403 -25.90437,-41.55194 -5.96878,-14.5179 -31.98581,-20.80058 -51.97967,-34.20177 -19.99387,-13.40121 -51.08382,-3.76596 -80.62669,-2.64985 -29.54287,1.11612 -51.32525,27.827 -76.98884,43.73961 -25.66358,15.9126 -10.95153,77.61237 -15.42827,116.41765 -4.47674,38.80529 57.89147,45.22762 86.83624,67.84051 28.94476,22.6129 88.92573,-26.80059 133.38762,-40.20179 44.4619,-13.40119 28.64765,-41.87624 42.97052,-62.81527 14.32285,-20.93903 30.43809,-42.99298 45.65617,-64.49037 15.21808,-21.49738 41.77752,-32.94251 62.66532,-49.41469 20.88782,-16.47215 47.14885,-8.37476 70.72231,-12.56306 23.57345,-4.18827 48.93927,31.26867 73.40795,46.90208 24.46867,15.63344 16.11459,61.42 24.17092,92.1291 8.05633,30.70909 -26.85593,48.01939 -40.28486,72.02818 -13.42893,24.0088 -45.95393,15.63464 -68.93186,23.45105 -22.97794,7.8164 -60.87424,-11.72492 -91.31234,-17.58829 -30.43809,-5.86336 -34.61449,-27.35894 -51.9227,-41.03932 -17.30822,-13.68038 -4.35473,-6.51671 -8.53306,-13.77596"
       inkscape:path-effect="#path-effect1423" />
    <path
       style="fill:none;stroke:#000000;stroke-width:20;stroke-linecap:butt;stroke-linejoin:miter;stroke-miterlimit:4;stroke-dasharray:none;stroke-opacity:1"
       d="m 218.39258,414.92111 c 0.32855,43.95359 0.72199,87.9067 1.1803,131.85913 0.54762,52.5171 1.18767,105.05371 -0.51671,157.546 -0.36862,11.35277 -0.84613,22.73716 0.12257,34.05453 0.96869,11.31737 3.4358,22.64324 8.65625,32.73126 6.3025,12.17899 16.76135,22.34115 29.5075,27.3993 11.14737,4.4237 23.41925,4.85738 35.40902,5.13737 133.75554,3.12349 267.726,-5.88417 401.30217,1.71245 3.53996,0.20132 7.10124,0.41375 10.6227,0 9.87473,-1.16021 18.52325,-7.10776 25.96661,-13.69964 10.13911,-8.97925 19.06109,-19.77846 23.60601,-32.53668 5.41464,-15.19964 4.23856,-31.82858 3.5409,-47.94877 -2.0243,-46.77378 0.56851,-93.60786 1.1803,-140.42143 0.69374,-53.08447 -1.16057,-106.16943 -1.1803,-159.25843 -2.1e-4,-0.57082 -2.1e-4,-1.14164 0,-1.71246"
       id="path1429"
       inkscape:original-d="m 218.39258,414.92111 c -0.39259,45.09591 1.37141,87.90546 1.1803,131.85913 -0.51671,118.83825 -3.29914,36.81957 -0.51671,157.546 1.20992,52.49677 6.41906,44.52509 8.77882,66.78579 2.35975,22.2607 19.67252,18.26743 29.5075,27.3993 9.835,9.13187 23.60687,3.42614 35.40902,5.13737 11.80216,1.71122 267.53562,1.14286 401.30217,1.71245 133.76653,0.56959 7.08265,0.001 10.6227,0 3.54005,-10e-4 17.31192,-9.13186 25.96661,-13.69964 8.65469,-4.56779 15.73819,-21.68989 23.60601,-32.53668 7.86782,-10.84678 2.36145,-31.96461 3.5409,-47.94877 1.17945,-15.98416 0.78771,-93.61305 1.1803,-140.42143 0.39259,-46.80837 -0.78601,-106.17105 -1.1803,-159.25843 -0.39428,-53.08739 8.5e-4,-1.14041 0,-1.71246"
       inkscape:path-effect="#path-effect1431"
       sodipodi:nodetypes="cssssssssssssc" />
    <path
       style="fill:none;stroke:#000000;stroke-width:20;stroke-linecap:butt;stroke-linejoin:miter;stroke-miterlimit:4;stroke-dasharray:none;stroke-opacity:1"
       d="m 760.15718,510.52866 c 17.95208,1.94771 36.16494,1.47762 53.99264,-1.39359 19.72843,-3.17733 39.4788,-9.56538 54.88002,-22.29758 11.46255,-9.4761 19.95051,-21.96195 29.40007,-33.44638 6.88356,-8.36587 14.61687,-16.46601 24.49998,-20.90397 11.11273,-4.99012 24.44931,-4.73918 35.36645,0.66547 l -4.96588,334.56024 c -6.29617,5.10528 -14.45866,7.85484 -22.56055,7.5996 -7.46481,-0.23517 -14.72434,-2.94668 -20.98789,-7.01444 -6.26355,-4.06776 -11.58564,-9.45198 -16.25214,-15.28314 -8.6486,-10.80711 -15.12515,-23.15189 -22.54005,-34.83997 -8.05254,-12.69319 -17.30493,-24.71986 -28.41998,-34.83996 -10.64279,-9.69012 -23.21397,-17.67334 -37.24003,-20.90401 -6.31705,-1.45503 -12.85955,-1.92694 -19.32003,-1.39357"
       id="path1675"
       inkscape:original-d="m 760.15718,510.52866 c 15.35405,-0.46352 35.6986,6.03794 53.99264,-1.39359 18.29406,-7.43152 45.07935,-11.14981 54.88002,-22.29758 9.8007,-11.1478 21.2327,-26.47938 29.40007,-33.44638 8.16736,-6.967 12.73936,-20.90478 24.49998,-20.90397 11.7607,8e-4 23.52073,8e-4 35.36645,0.66547 l -4.96588,334.56024 c -7.53311,2.49074 -15.04645,5.27794 -22.56055,7.5996 -7.51402,2.32167 -24.82598,-14.86404 -37.24003,-22.29758 -12.41411,-7.43352 -15.02595,-23.22565 -22.54005,-34.83997 -7.514,-11.61433 -18.94594,-23.22564 -28.41998,-34.83996 -9.47404,-11.61435 -24.82598,-13.93501 -37.24003,-20.90401 -12.41404,-6.96898 -8.21265,-0.92805 -19.32003,-1.39357"
       inkscape:path-effect="#path-effect1677"
       sodipodi:nodetypes="cssssccsssssc" />
    <text
       xml:space="preserve"
       style="font-size:74.6667px;line-height:1.25;font-family:sans-serif"
       x="401.52872"
       y="554.008"
       id="text4824"><tspan
         sodipodi:role="line"
         id="tspan4822"
         x="401.52872"
         y="554.008" /></text>
    <path
       style="fill:#030303;stroke:none;stroke-width:0.768742"
       d="m 584.88416,647.97154 -19.98729,0.7687 c -3.22334,16.621 -6.61734,37.8137 -20.75604,48.8997 -10.84311,8.5007 -27.05588,7.2185 -39.97459,7.2185 h -83.7929 c 24.04549,-24.5521 46.07456,-51.7133 68.63484,-77.643 8.40081,-9.6561 22.69711,-20.1326 22.52338,-33.8246 -0.0492,-3.8583 -3.35556,-7.0801 -5.5411,-9.9937 l -14.99047,-19.9873 c -19.61599,-26.1557 -38.77228,-52.8033 -59.09551,-78.4117 h 53.0432 c 22.16284,0 47.91186,-1.745 61.14268,19.9873 3.00809,4.9415 4.86921,10.5887 6.38978,16.1436 1.63281,5.9654 3.06421,12.2499 3.19182,18.4498 l 18.44981,-3.0749 c -2.39232,-18.9288 -2.67907,-37.9444 -4.48177,-56.887 -0.52043,-5.4703 2.02026,-14.9182 -2.55068,-18.9741 -3.2341,-2.8697 -7.60056,-1.3614 -11.41736,-1.0816 -8.9497,0.6565 -18.00163,1.1047 -26.90597,2.1548 -32.00505,3.7768 -66.17179,3.2948 -98.399,3.2948 -9.51395,0 -18.91874,0.7688 -28.44346,0.7688 -3.3963,0 -8.29165,-0.9856 -10.3342,2.42 -8.45539,14.0964 3.32481,23.4666 11.58495,34.4796 18.85647,25.1425 37.83441,50.1935 56.69165,75.3367 l 14.99048,19.9873 c 1.60667,2.1417 5.28433,5.5296 4.90073,8.4562 -0.36592,2.7982 -3.83065,5.7041 -5.6295,7.6874 -4.8154,5.3097 -9.53779,10.7178 -14.2225,16.1436 -18.7304,21.6908 -38.05427,42.8697 -56.77007,64.5743 -5.35352,6.2092 -10.90845,12.2392 -16.26043,18.4498 -2.03871,2.3655 -5.38812,5.0453 -5.19516,8.4562 0.18296,3.2403 2.52455,11.894 5.26127,13.8158 2.29469,1.6113 6.98402,0.8795 9.60159,0.5712 7.14238,-0.8433 14.39162,-0.6965 21.52478,-1.5375 19.71208,-2.3262 41.64199,0.088 61.49937,0.9579 12.74113,0.5573 25.73979,-1.0478 38.43711,0.1607 12.21838,1.1623 24.61742,0.638 36.89962,0.638 4.08279,0 10.9661,1.3699 14.60533,-0.5942 8.10408,-4.3734 6.44436,-16.242 6.98787,-24.0055 1.4952,-21.3296 4.42718,-42.7852 8.38774,-63.8056 z"
       id="path1530" />
    <path
       style="fill:#000000;stroke-width:1.40332"
       d="m 2457.1038,789.87067 c -3.2784,-2.70954 -3.2784,-2.70954 -4.2259,-73.38685 -0.521,-38.87251 -1.706,-87.90726 -2.633,-108.96611 -0.9272,-21.05883 -1.8066,-85.19259 -1.9543,-142.51945 -0.232,-90.09815 -0.9508,-119.35187 -2.8844,-117.37733 -0.2457,0.251 -2.6789,14.47924 -5.4069,31.61836 -8.4951,53.37106 -34.9581,199.84605 -45.8536,253.80431 -3.3075,16.37912 -6.7319,34.26364 -7.6098,39.74343 -4.7004,29.33879 -26.367,33.66543 -29.9211,5.97506 -4.9364,-38.45807 -63.9119,-338.3331 -67.2212,-341.80181 -3.8308,-4.01526 -3.2631,297.35481 0.7686,408.11355 1.0522,28.90715 -1.1312,34.10432 -11.932,28.40077 -12.4787,-6.58976 -12.1508,3.16796 -9.869,-293.58623 1.8812,-244.64545 1.0037,-226.32565 10.8892,-227.33453 6.8689,-0.70102 7.7842,2.05187 27.3715,82.33406 39.2228,160.76136 47.7674,199.72483 59.8599,272.96263 3.636,22.02188 6.8881,39.75684 7.2268,39.41103 0.8452,-0.86324 4.6111,-21.84293 13.3703,-74.4874 4.0878,-24.56865 13.7784,-78.81113 21.5345,-120.53884 7.7562,-41.72771 16.5158,-89.58872 19.4657,-106.35778 16.4385,-93.44615 16.1794,-92.37692 23.0296,-95.03648 10.898,-4.23122 11.7424,0.0211 11.7476,59.15891 0,51.10169 1.1198,87.17277 4.836,156.41638 6.7254,125.31221 10.576,318.74309 6.4462,323.82071 -2.7012,3.32095 -12.8372,3.10301 -17.0347,-0.36639 z m -928.1412,-1.92963 c -46.371,-19.46528 -67.3897,-114.27496 -64.0496,-288.90827 2.7782,-145.23477 18.9559,-188.26528 65.6132,-174.52131 7.734,2.27823 19.1553,4.90275 25.3804,5.83228 35.891,5.35915 61.8984,72.46072 62.6328,161.59849 1.3374,162.33263 -1.9559,204.36984 -19.5359,249.36504 -14.4103,36.88215 -44.9045,57.1854 -70.0409,46.63377 z m 30.1675,-23.05553 c 29.9408,-20.23372 45.0399,-118.94136 36.654,-239.61783 -1.1924,-17.15908 -2.8199,-46.5138 -3.6165,-65.23278 -0.7967,-18.71898 -1.7778,-35.52705 -2.1803,-37.35131 -0.4026,-1.8242 -0.9636,-8.20566 -1.247,-14.18103 -2.1381,-45.09362 -39.9905,-78.39595 -72.7499,-64.00475 -17.8553,7.84388 -20.558,16.23986 -23.152,71.91999 -1.081,23.20942 -2.5981,47.94232 -3.3709,54.96193 -6.4829,58.88043 -3.6965,155.92286 6.1894,215.55181 11.2773,68.0221 35.0205,97.18206 63.4732,77.95397 z m -182.5742,21.21197 c -10.4415,-5.7847 -23.1693,-52.18752 -37.8969,-138.16377 -14.7405,-86.05137 -22.6629,-110.1192 -35.8226,-108.82794 -12.3674,1.21353 -12.5411,1.80934 -11.462,39.34083 1.8595,64.66618 6.9097,164.00091 9.2516,181.96758 2.5753,19.75783 -5.557,30.78692 -15.0733,20.44261 -3.5443,-3.85259 -6.101,-65.82111 -11.3645,-275.44256 -4.7601,-189.57493 -4.9035,-187.93082 16.3915,-187.87419 38.003,0.10122 66.2413,21.96526 71.1507,55.08967 6.7437,45.5008 -0.096,84.92569 -22.6186,130.3883 -14.1838,28.63016 -15.9429,12.74441 16.4403,148.46095 21.9038,91.79697 23.0669,96.10861 29.7169,110.15126 9.8585,20.81788 5.7128,32.45932 -8.7131,24.46726 z m -70.9574,-267.30511 c 19.4395,-7.4774 38.3292,-64.07333 38.3068,-114.77256 -0.019,-44.90318 -13.0369,-67.12859 -39.9681,-68.24125 -14.6908,-0.60693 -14.5523,-2.52188 -10.8562,150.20811 0.9553,39.47563 0.2158,37.53756 12.5175,32.8057 z m 610.338,262.61926 c -2.6592,-4.14661 -2.6692,-19.38609 -0.1467,-225.65473 2.82,-230.57734 2.7806,-230.07732 17.6557,-224.45814 3.4425,1.30051 3.9942,70.17642 2.5501,318.3876 -0.3528,60.63066 -0.1119,110.57176 0.5353,110.98026 0.6472,0.40846 16.3919,1.27294 34.9881,1.921 39.5037,1.37671 45.1014,3.37063 42.2325,15.04351 -1.8643,7.58537 -93.113,11.11199 -97.815,3.7805 z m 176.4549,3.12896 c -3.6121,-1.48402 -5.8726,-8.84363 -5.8939,-19.18834 -0.011,-5.69345 -0.5756,-11.24573 -1.2532,-12.33846 -0.7715,-1.24436 -0.4233,-4.15908 0.9316,-7.79958 2.6061,-7.00227 2.7989,-24.12888 1.1197,-99.40769 -0.9187,-41.18612 -0.6341,-69.09048 1.3238,-129.75653 2.2002,-68.17238 2.2843,-83.24919 0.7131,-127.84768 -2.2653,-64.29862 2.662,-75.76113 26.9969,-62.80313 2.2659,1.20663 10.9694,3.11639 19.3408,4.24393 28.8909,3.89123 43.8903,9.67907 43.8903,16.93589 0,3.86909 -10.6322,13.97003 -13.5155,12.84022 -4.3314,-1.69738 -30.8648,-9.16364 -37.587,-10.57669 -17.763,-3.73389 -20.3576,-1.99203 -19.3249,12.9733 0.3906,5.66316 0.042,36.14156 -0.7761,67.72984 -2.1076,81.43357 -3.5356,76.95011 24.4179,76.66444 28.4613,-0.29088 35.8771,4.02291 31.655,18.41362 -3.6579,12.46744 -9.6554,13.80312 -28.9624,6.45014 -26.3435,-10.03275 -26.0026,-11.21078 -26.4109,91.31767 -0.6033,151.51599 -2.9097,143.62871 41.919,143.35361 33.9957,-0.20855 46.446,8.60661 25.0497,17.736 -4.6456,1.98213 -79.0927,2.92528 -83.6339,1.05944 z m -376.651,-3.97326 c -4.2887,-4.70534 -5.4527,-33.79297 -2.8502,-71.23133 5.408,-77.79986 5.8278,-89.36961 4.9562,-136.56184 -0.5984,-32.40018 -0.1937,-66.67119 1.2729,-107.7759 2.4925,-69.85733 2.8433,-127.04076 0.7871,-128.33841 -0.7637,-0.48201 -1.3886,-4.31299 -1.3886,-8.51323 0,-16.68317 10.6565,-19.63038 38.8831,-10.75374 32.4257,10.19713 32.5675,10.32884 45.9687,42.6657 17.2666,41.66403 11.2891,131.86821 -11.0914,167.37571 -9.6078,15.24301 -9.6078,15.24301 -3.4776,21.38681 38.7324,38.81835 38.7962,162.07517 0.1074,207.5554 -18.7919,22.09064 -62.0467,36.39166 -73.1675,24.19083 z m 40.1002,-27.71959 c 24.3136,-11.74589 38.5202,-38.91003 40.0359,-76.55195 2.8059,-69.68447 -16.9422,-118.98241 -49.2272,-122.8871 -8.7458,-1.05775 -8.7161,-1.30743 -9.7581,81.76209 -0.4255,33.92814 -1.0295,75.24813 -1.3421,91.82222 -0.645,34.19832 0.3628,35.4822 20.2915,25.85474 z m 5.0922,-228.34668 c 29.2772,-14.32807 39.2375,-100.23423 19.162,-165.27009 -7.6322,-24.72582 -31.2518,-32.14473 -36.6891,-11.52412 -3.9361,14.92673 -4.4144,24.15361 -5.0145,96.72889 -0.7729,93.48263 -1.2697,91.71838 22.5416,80.06532 z m 949.799,258.88996 c -0.7639,-0.26914 -3.0586,-0.86401 -5.0998,-1.32178 -5.3305,-1.19577 -5.9446,-4.04711 -12.2139,-56.70771 -3.055,-25.66093 -5.8053,-46.91233 -6.1118,-47.2253 -1.2749,-1.30196 -19.9195,-3.2092 -45.3144,-4.63541 -14.8937,-0.83645 -29.2664,-1.8492 -31.9397,-2.25055 -7.8439,-1.17772 -8.3845,-0.0507 -11.3429,23.65593 -5.8723,47.05648 -13.6374,77.0918 -21.5806,83.47211 -6.3008,5.06128 -18.3478,-3.25961 -16.3058,-11.26251 10.1138,-39.6386 24.8654,-116.4548 36.1195,-188.08675 4.2778,-27.22887 12.0671,-70.56589 17.3094,-96.30451 11.4505,-56.21956 14.4364,-73.92267 17.3404,-102.81254 5.8819,-58.5151 7.0271,-62.94133 15.9596,-61.68678 4.899,0.68804 7.8214,0.31488 11.1023,-1.41779 11.3238,-5.97978 14.6565,-0.32939 15.8916,26.94297 0.5301,11.69933 1.8166,29.8865 2.8589,40.41594 10.6075,107.14713 12.5702,126.18133 18.1336,175.84488 2.6648,23.78872 9.5632,82.12304 15.3299,129.6319 11.7103,96.47502 11.7083,97.92202 -0.1361,93.7479 z m -27.0909,-130.84847 c -0.015,-8.90269 -8.3275,-109.28332 -15.268,-184.38173 -3.047,-32.96868 -6.2599,-67.74765 -7.1399,-77.28668 -0.88,-9.53896 -1.9959,-18.1322 -2.4798,-19.09611 -2.252,-4.48618 -51.4784,255.75967 -51.4784,272.15209 0,9.7696 1.1204,10.28986 28.4681,13.22009 37.3493,4.00187 47.9111,2.98586 47.898,-4.60766 z m 444.0161,129.12133 c -1.3393,-1.36762 -5.4539,-2.58057 -10.0838,-2.97263 -4.3019,-0.36426 -8.0447,-1.3767 -8.3173,-2.24982 -0.627,-2.00719 -3.5513,-149.88716 -3.5648,-180.26854 -0.017,-41.94646 1.8747,-39.15624 -26.9584,-39.72976 -10.3262,-0.20541 -19.5691,-1.20158 -24.3019,-2.6192 -9.1519,-2.74118 -19.4073,-2.98946 -22.6665,-0.54869 -3.6375,2.72402 -3.8258,80.248 -0.3683,151.57224 2.8906,59.6298 2.5332,65.73569 -4.1075,70.17907 -7.0945,4.74699 -14.3714,-1.75674 -17.2381,-15.40627 -1.4393,-6.85413 -1.7383,-177.58601 -0.4555,-260.24435 0.3782,-24.37869 -0.2068,-54.79045 -1.5842,-82.34492 -4.1796,-83.61889 -3.182,-95.26123 8.165,-95.26123 13.2005,0 13.8391,5.79624 12.7818,116.00445 -1.0437,108.82383 -4.2342,97.15428 27.2517,99.67088 53.1054,4.24461 54.7532,0.32798 46.2903,-110.02661 -7.9143,-103.20205 -6.5879,-115.95601 11.5639,-111.20528 6.6229,1.73337 6.6229,1.73337 7.5609,43.70641 0.5158,23.08513 1.5372,58.56484 2.2693,78.84372 0.7322,20.27886 1.9853,55.33476 2.7847,77.90197 0.7994,22.56716 2.0337,79.68133 2.7427,126.92032 0.7092,47.23898 2.0034,96.85075 2.8764,110.24832 1.7418,26.73325 0.6568,33.23957 -4.6404,27.82992 z m -2044.2747,-4.32827 c -3.1567,-6.25751 -3.6478,-24.83237 -5.1088,-193.21662 -1.2079,-139.18713 -2.717,-210.7538 -6.3547,-301.34708 -1.5646,-38.96835 25.5508,-44.41267 66.5089,-13.35385 71.8461,54.48137 45.4154,242.49173 -36.9435,262.79153 -4.2952,1.05871 -4.4457,20.84973 -0.8583,112.88791 2.6496,67.98083 3.2467,120.94818 1.4268,126.57931 -3.1953,9.88722 -14.7678,13.39476 -18.6704,5.6588 z m 23.5714,-273.16173 c 80.997,-44.14485 69.8096,-233.45588 -13.7962,-233.45588 -6.2187,0 -6.2316,1.62505 -0.8913,112.03022 1.4526,30.02839 3.0258,69.59349 3.4963,87.92248 1.0586,41.25101 0.4298,39.36835 11.1912,33.50318 z m 1741.6048,266.05957 c -4.2817,-2.71083 -4.2458,-2.22758 -4.6479,-62.73939 -0.2618,-39.34963 -3.4938,-114.48265 -10.9199,-253.84063 -1.8998,-35.65046 -4.9,-102.8776 -4.9108,-110.03662 0,-2.87746 -0.8356,-3.00012 -26.7366,-3.9454 -29.5863,-1.07975 -35.1507,-2.07649 -39.7989,-7.12927 -12.0842,-13.13546 10.4017,-15.68393 81.1123,-9.193 9.1653,0.84134 31.2569,1.74736 49.0927,2.01337 35.6443,0.53167 38.3213,1.18242 37.4184,9.09617 -0.9178,8.04455 -6.9057,9.04656 -42.0714,7.03988 -39.5182,-2.25508 -37.9172,-13.09047 -27.0467,183.06008 7.3223,132.12244 10.8973,234.69895 8.3494,239.56061 -3.8694,7.38342 -13.2636,10.27845 -19.8406,6.1142 z"
       id="path1182" />
  </g>
</svg>
