<?xml version="1.0" encoding="UTF-8" standalone="no"?>
<!-- Created with Inkscape (http://www.inkscape.org/) -->

<svg
   version="1.1"
   id="svg840"
   width="2974.3054"
   height="655.37964"
   viewBox="0 0 2974.3054 655.37964"
   sodipodi:docname="mathshots.svg"
   inkscape:version="1.1.1 (c3084ef, 2021-09-22)"
   inkscape:export-filename="/Users/sbondaryev/Desktop/mathshots.png"
   inkscape:export-xdpi="300"
   inkscape:export-ydpi="300"
   xmlns:inkscape="http://www.inkscape.org/namespaces/inkscape"
   xmlns:sodipodi="http://sodipodi.sourceforge.net/DTD/sodipodi-0.dtd"
   xmlns="http://www.w3.org/2000/svg"
   xmlns:svg="http://www.w3.org/2000/svg">
  <defs
     id="defs844">
    <inkscape:path-effect
       effect="spiro"
       id="path-effect12271"
       is_visible="true"
       lpeversion="1" />
    <inkscape:path-effect
       effect="spiro"
       id="path-effect12267"
       is_visible="true"
       lpeversion="1" />
    <inkscape:path-effect
       effect="spiro"
       id="path-effect12263"
       is_visible="true"
       lpeversion="1" />
    <inkscape:path-effect
       effect="spiro"
       id="path-effect12259"
       is_visible="true"
       lpeversion="1" />
    <inkscape:path-effect
       effect="spiro"
       id="path-effect12255"
       is_visible="true"
       lpeversion="1" />
    <inkscape:path-effect
       effect="spiro"
       id="path-effect12251"
       is_visible="true"
       lpeversion="1" />
    <inkscape:path-effect
       effect="spiro"
       id="path-effect1677"
       is_visible="true"
       lpeversion="1" />
    <inkscape:path-effect
       effect="spiro"
       id="path-effect1640"
       is_visible="true"
       lpeversion="1" />
    <inkscape:path-effect
       effect="spiro"
       id="path-effect1443"
       is_visible="true"
       lpeversion="1" />
    <inkscape:path-effect
       effect="spiro"
       id="path-effect1435"
       is_visible="true"
       lpeversion="1" />
    <inkscape:path-effect
       effect="spiro"
       id="path-effect1431"
       is_visible="true"
       lpeversion="1" />
    <inkscape:path-effect
       effect="spiro"
       id="path-effect1423"
       is_visible="true"
       lpeversion="1" />
    <inkscape:path-effect
       effect="spiro"
       id="path-effect1386"
       is_visible="true"
       lpeversion="1" />
    <inkscape:path-effect
       effect="spiro"
       id="path-effect1039"
       is_visible="true"
       lpeversion="1" />
    <inkscape:path-effect
       effect="spiro"
       id="path-effect1035"
       is_visible="true"
       lpeversion="1" />
  </defs>
  <sodipodi:namedview
     id="namedview842"
     pagecolor="#ffffff"
     bordercolor="#666666"
     borderopacity="1.0"
     inkscape:pageshadow="2"
     inkscape:pageopacity="0.0"
     inkscape:pagecheckerboard="0"
     showgrid="false"
     inkscape:zoom="0.11450684"
     inkscape:cx="2240.0408"
     inkscape:cy="2047.9126"
     inkscape:window-width="1401"
     inkscape:window-height="847"
     inkscape:window-x="40"
     inkscape:window-y="25"
     inkscape:window-maximized="0"
     inkscape:current-layer="g846" />
  <g
     inkscape:groupmode="layer"
     inkscape:label="Image"
     id="g846"
     transform="translate(-208.39286,-160.22822)">
    <path
       style="fill:none;stroke:#000000;stroke-width:20;stroke-linecap:butt;stroke-linejoin:miter;stroke-miterlimit:4;stroke-dasharray:none;stroke-opacity:1"
       d="m 480.66403,252.90458 c -5.95569,-15.29805 -14.79053,-29.4696 -25.90437,-41.55194 -14.18748,-15.42384 -32.14911,-27.42471 -51.97967,-34.20177 -25.77106,-8.80721 -54.05874,-8.63807 -80.62669,-2.64985 -29.30991,6.60624 -57.66789,20.73061 -76.98884,43.73961 -13.2801,15.81504 -21.89681,35.48658 -24.58663,55.96197 -2.68982,20.47538 0.54724,41.68535 9.15836,60.45568 7.9342,17.29479 20.3469,32.44706 35.44364,44.02937 15.09674,11.5823 32.8333,19.61427 51.3926,23.81114 23.67759,5.35428 48.73696,4.45482 71.97721,-2.55857 23.24024,-7.01338 44.60862,-20.1219 61.41041,-37.64322 17.60045,-18.35417 29.90957,-40.9964 42.97052,-62.81527 13.54764,-22.63191 28.17369,-44.7393 45.65617,-64.49037 17.74605,-20.04885 38.59075,-37.69746 62.66532,-49.41469 21.8609,-10.63983 46.68691,-16.22425 70.72231,-12.56306 29.46812,4.48873 55.85714,22.80877 73.40795,46.90208 19.15198,26.29136 28.41838,59.88017 24.17092,92.1291 -3.68709,27.99433 -17.82744,54.91264 -40.28486,72.02818 -19.5841,14.92568 -44.36102,21.84278 -68.93186,23.45105 -31.26776,2.04661 -63.01676,-4.12643 -91.31234,-17.58829 -20.12761,-9.57588 -38.76785,-23.04576 -51.9227,-41.03932 -3.19103,-4.36478 -6.04655,-8.97479 -8.53306,-13.77596"
       id="path1421"
       sodipodi:nodetypes="csssssssssssssssssc"
       inkscape:original-d="m 480.66403,252.90458 c -6.26589,-14.51671 -19.93561,-27.03403 -25.90437,-41.55194 -5.96878,-14.5179 -31.98581,-20.80058 -51.97967,-34.20177 -19.99387,-13.40121 -51.08382,-3.76596 -80.62669,-2.64985 -29.54287,1.11612 -51.32525,27.827 -76.98884,43.73961 -25.66358,15.9126 -10.95153,77.61237 -15.42827,116.41765 -4.47674,38.80529 57.89147,45.22762 86.83624,67.84051 28.94476,22.6129 88.92573,-26.80059 133.38762,-40.20179 44.4619,-13.40119 28.64765,-41.87624 42.97052,-62.81527 14.32285,-20.93903 30.43809,-42.99298 45.65617,-64.49037 15.21808,-21.49738 41.77752,-32.94251 62.66532,-49.41469 20.88782,-16.47215 47.14885,-8.37476 70.72231,-12.56306 23.57345,-4.18827 48.93927,31.26867 73.40795,46.90208 24.46867,15.63344 16.11459,61.42 24.17092,92.1291 8.05633,30.70909 -26.85593,48.01939 -40.28486,72.02818 -13.42893,24.0088 -45.95393,15.63464 -68.93186,23.45105 -22.97794,7.8164 -60.87424,-11.72492 -91.31234,-17.58829 -30.43809,-5.86336 -34.61449,-27.35894 -51.9227,-41.03932 -17.30822,-13.68038 -4.35473,-6.51671 -8.53306,-13.77596"
       inkscape:path-effect="#path-effect1423" />
    <path
       style="fill:none;stroke:#000000;stroke-width:20;stroke-linecap:butt;stroke-linejoin:miter;stroke-miterlimit:4;stroke-dasharray:none;stroke-opacity:1"
       d="m 218.39258,414.92111 c 0.32855,43.95359 0.72199,87.9067 1.1803,131.85913 0.54762,52.5171 1.18767,105.05371 -0.51671,157.546 -0.36862,11.35277 -0.84613,22.73716 0.12257,34.05453 0.96869,11.31737 3.4358,22.64324 8.65625,32.73126 6.3025,12.17899 16.76135,22.34115 29.5075,27.3993 11.14737,4.4237 23.41925,4.85738 35.40902,5.13737 133.75554,3.12349 267.726,-5.88417 401.30217,1.71245 3.53996,0.20132 7.10124,0.41375 10.6227,0 9.87473,-1.16021 18.52325,-7.10776 25.96661,-13.69964 10.13911,-8.97925 19.06109,-19.77846 23.60601,-32.53668 5.41464,-15.19964 4.23856,-31.82858 3.5409,-47.94877 -2.0243,-46.77378 0.56851,-93.60786 1.1803,-140.42143 0.69374,-53.08447 -1.16057,-106.16943 -1.1803,-159.25843 -2.1e-4,-0.57082 -2.1e-4,-1.14164 0,-1.71246"
       id="path1429"
       inkscape:original-d="m 218.39258,414.92111 c -0.39259,45.09591 1.37141,87.90546 1.1803,131.85913 -0.51671,118.83825 -3.29914,36.81957 -0.51671,157.546 1.20992,52.49677 6.41906,44.52509 8.77882,66.78579 2.35975,22.2607 19.67252,18.26743 29.5075,27.3993 9.835,9.13187 23.60687,3.42614 35.40902,5.13737 11.80216,1.71122 267.53562,1.14286 401.30217,1.71245 133.76653,0.56959 7.08265,0.001 10.6227,0 3.54005,-10e-4 17.31192,-9.13186 25.96661,-13.69964 8.65469,-4.56779 15.73819,-21.68989 23.60601,-32.53668 7.86782,-10.84678 2.36145,-31.96461 3.5409,-47.94877 1.17945,-15.98416 0.78771,-93.61305 1.1803,-140.42143 0.39259,-46.80837 -0.78601,-106.17105 -1.1803,-159.25843 -0.39428,-53.08739 8.5e-4,-1.14041 0,-1.71246"
       inkscape:path-effect="#path-effect1431"
       sodipodi:nodetypes="cssssssssssssc" />
    <path
       style="fill:none;stroke:#000000;stroke-width:20;stroke-linecap:butt;stroke-linejoin:miter;stroke-miterlimit:4;stroke-dasharray:none;stroke-opacity:1"
       d="m 760.15718,510.52866 c 17.95208,1.94771 36.16494,1.47762 53.99264,-1.39359 19.72843,-3.17733 39.4788,-9.56538 54.88002,-22.29758 11.46255,-9.4761 19.95051,-21.96195 29.40007,-33.44638 6.88356,-8.36587 14.61687,-16.46601 24.49998,-20.90397 11.11273,-4.99012 24.44931,-4.73918 35.36645,0.66547 l -4.96588,334.56024 c -6.29617,5.10528 -14.45866,7.85484 -22.56055,7.5996 -7.46481,-0.23517 -14.72434,-2.94668 -20.98789,-7.01444 -6.26355,-4.06776 -11.58564,-9.45198 -16.25214,-15.28314 -8.6486,-10.80711 -15.12515,-23.15189 -22.54005,-34.83997 -8.05254,-12.69319 -17.30493,-24.71986 -28.41998,-34.83996 -10.64279,-9.69012 -23.21397,-17.67334 -37.24003,-20.90401 -6.31705,-1.45503 -12.85955,-1.92694 -19.32003,-1.39357"
       id="path1675"
       inkscape:original-d="m 760.15718,510.52866 c 15.35405,-0.46352 35.6986,6.03794 53.99264,-1.39359 18.29406,-7.43152 45.07935,-11.14981 54.88002,-22.29758 9.8007,-11.1478 21.2327,-26.47938 29.40007,-33.44638 8.16736,-6.967 12.73936,-20.90478 24.49998,-20.90397 11.7607,8e-4 23.52073,8e-4 35.36645,0.66547 l -4.96588,334.56024 c -7.53311,2.49074 -15.04645,5.27794 -22.56055,7.5996 -7.51402,2.32167 -24.82598,-14.86404 -37.24003,-22.29758 -12.41411,-7.43352 -15.02595,-23.22565 -22.54005,-34.83997 -7.514,-11.61433 -18.94594,-23.22564 -28.41998,-34.83996 -9.47404,-11.61435 -24.82598,-13.93501 -37.24003,-20.90401 -12.41404,-6.96898 -8.21265,-0.92805 -19.32003,-1.39357"
       inkscape:path-effect="#path-effect1677"
       sodipodi:nodetypes="cssssccsssssc" />
    <text
       xml:space="preserve"
       style="font-size:74.6667px;line-height:1.25;font-family:sans-serif"
       x="401.52872"
       y="554.008"
       id="text4824"><tspan
         sodipodi:role="line"
         id="tspan4822"
         x="401.52872"
         y="554.008" /></text>
    <g
       id="g12536"
       transform="translate(-10.618202,7.9636506)"
       style="stroke-width:20;stroke-miterlimit:4;stroke-dasharray:none">
      <path
         style="fill:none;stroke:#000000;stroke-width:20;stroke-linecap:butt;stroke-linejoin:miter;stroke-miterlimit:4;stroke-dasharray:none;stroke-opacity:1"
         d="m 457.0861,450.58116 c -5.91628,-2.85884 -12.5614,-4.19334 -19.12271,-3.84032 -6.5613,0.35303 -13.02487,2.39283 -18.60025,5.86997 -8.03708,5.0124 -14.04234,12.85328 -18.04722,21.43697 -4.00489,8.58368 -6.13282,17.92262 -7.63651,27.2745 -5.86552,36.4794 -2.59556,73.71123 -0.80261,110.61565 2.15123,44.2791 2.15123,88.66264 0,132.94174"
         id="path12249"
         inkscape:path-effect="#path-effect12251"
         inkscape:original-d="m 457.0861,450.58116 c -12.30599,0.33928 -25.14785,1.3541 -37.72296,2.02965 -12.57512,0.67555 -17.1217,32.47532 -25.68373,48.71147 -8.56203,16.23616 -0.53428,73.74477 -0.80261,110.61565 -0.26833,36.87088 7.9e-4,88.62883 0,132.94174" />
      <path
         style="fill:none;stroke:#000000;stroke-width:20;stroke-linecap:butt;stroke-linejoin:miter;stroke-miterlimit:4;stroke-dasharray:none;stroke-opacity:1"
         d="M 360.26197,603.81935 H 425.2106"
         id="path12253"
         inkscape:path-effect="#path-effect12255"
         inkscape:original-d="m 360.26197,603.81935 c 21.65054,10e-4 43.30009,10e-4 64.94863,0" />
    </g>
    <g
       id="g12532"
       transform="translate(-22.53486,-29.772429)"
       style="stroke-width:20;stroke-miterlimit:4;stroke-dasharray:none">
      <path
         style="fill:none;stroke:#000000;stroke-width:20;stroke-linecap:butt;stroke-linejoin:miter;stroke-miterlimit:4;stroke-dasharray:none;stroke-opacity:1"
         d="m 514.51498,541.59946 c -11.13527,11.82118 -20.41612,25.38573 -27.40021,40.04714 -12.11208,25.42639 -17.18972,54.16032 -14.52538,82.19788 2.66434,28.03757 13.06326,55.3008 29.74772,77.99072"
         id="path12257"
         inkscape:path-effect="#path-effect12259"
         inkscape:original-d="m 514.51498,541.59946 c -9.13241,13.06586 -18.26581,26.69894 -27.40021,40.04714 -9.1344,13.34822 10.14922,106.79324 15.22234,160.1886" />
      <path
         style="fill:none;stroke:#000000;stroke-width:20;stroke-linecap:butt;stroke-linejoin:miter;stroke-miterlimit:4;stroke-dasharray:none;stroke-opacity:1"
         d="m 533.7966,599.76006 57.84488,91.33402"
         id="path12261"
         inkscape:path-effect="#path-effect12263"
         inkscape:original-d="m 533.7966,599.76006 c 19.28263,30.44567 38.56425,60.89035 57.84488,91.33402" />
      <path
         style="fill:none;stroke:#000000;stroke-width:20;stroke-linecap:butt;stroke-linejoin:miter;stroke-miterlimit:4;stroke-dasharray:none;stroke-opacity:1"
         d="m 600.77488,603.81935 -71.03757,87.27473"
         id="path12265"
         inkscape:path-effect="#path-effect12267"
         inkscape:original-d="m 600.77488,603.81935 c -23.33991,28.7543 -47.35738,58.18415 -71.03757,87.27473" />
      <path
         style="fill:none;stroke:#000000;stroke-width:20;stroke-linecap:butt;stroke-linejoin:miter;stroke-miterlimit:4;stroke-dasharray:none;stroke-opacity:1"
         d="m 608.89346,538.87071 c 27.66682,30.13217 42.31737,71.82989 39.57808,112.64529 -2.28591,34.06005 -16.49039,67.20385 -39.57808,92.34885"
         id="path12269"
         inkscape:path-effect="#path-effect12271"
         inkscape:original-d="m 608.89346,538.87071 c 13.19369,37.54943 26.38639,75.09786 39.57808,112.64529 13.19169,37.54744 -26.38439,61.5669 -39.57808,92.34885" />
    </g>
    <path
       style="fill:#050505;stroke:none;stroke-width:30;stroke-miterlimit:4;stroke-dasharray:none"
       d="m 2215.2506,227.06686 c -57.0181,8.90184 -70.1821,79.20878 -64.5723,126.71955 13.4485,113.91784 114.6127,206.11848 103.3177,324.71877 -3.329,34.96181 -13.5291,92.52536 -50.4353,107.68453 -15.8307,6.50216 -27.8596,-1.24563 -42.8629,-5.40462 -5.3916,-1.49371 -14.5681,-4.28109 -18.1284,1.92623 -3.429,5.98262 3.2277,12.38217 7.7426,15.33062 12.1731,7.94782 28.7974,8.62194 42.8577,7.63609 58.3468,-4.08886 87.0208,-76.35437 87.0246,-127.17285 0,-47.13618 -9.1752,-91.89542 -28.3947,-135.08301 -29.2156,-65.65164 -73.5267,-131.31757 -76.7635,-205.22226 -1.3859,-31.64813 3.4212,-71.24044 35.0189,-87.80135 13.0096,-6.81871 22.1615,-3.02054 35.0697,0.90102 3.1822,0.96676 8.9843,2.27641 10.604,-1.83608 1.9821,-5.03782 -3.1563,-10.1876 -6.7308,-12.85042 -9.6623,-7.1959 -21.7263,-11.42309 -33.7473,-9.54622 M 1252.7842,651.2288 h -1.2989 c -9.6584,-39.20655 -12.6787,-80.03668 -21.3333,-119.49651 -14.9709,-68.25848 -34.171,-135.61554 -48.806,-203.92338 -5.4199,-25.29767 -12.5608,-50.28504 -19.002,-75.33475 -1.9049,-7.40827 -3.8078,-22.66473 -14.7627,-20.34402 -11.8223,2.50436 -7.7993,23.26727 -7.7993,32.03389 0,33.84401 -1.2988,67.47526 -1.2988,101.31226 0,106.90001 -2.5978,213.83769 -2.5978,320.82213 0,24.78774 -3.2545,52.14594 0.5702,76.63363 1.4237,9.1142 4.4877,21.62887 15.0113,24.09023 14.2965,3.34461 10.8224,-27.85696 10.2798,-35.7801 -2.9099,-42.4927 -3.7804,-84.60873 -3.7804,-127.28976 0,-40.74831 -1.2989,-81.41868 -1.2989,-122.09425 0,-60.67435 2.5978,-121.26428 2.5978,-181.84251 h 1.2988 c 2.6191,30.03649 13.3464,61.30041 19.4791,90.92125 14.1221,68.20653 28.6502,136.60399 40.5939,205.22226 4.1414,23.79279 8.1937,47.73106 12.7884,71.43813 1.4896,7.68674 5.9715,17.66859 15.4621,16.53208 9.1636,-1.09755 13.8148,-11.22748 15.5671,-19.12983 4.9538,-22.34714 9.0077,-45.08396 13.5277,-67.5415 19.0104,-94.46069 39.091,-190.1683 51.4355,-285.75251 3.4082,11.53141 2.1275,24.45262 2.6484,36.3685 1.3313,30.40406 -0.051,60.46912 -0.051,90.92125 0,76.76871 5.1955,153.27115 5.1955,229.90088 v 87.02463 c 0,8.73624 -2.3614,24.75136 7.8504,28.91036 18.2193,7.41917 18.1271,-11.85093 18.1271,-23.71486 0,-30.86257 1.947,-62.87204 -1.6691,-93.519 -5.7332,-48.58832 -1.4365,-99.17041 -3.5771,-148.07175 -2.9367,-67.05054 -9.0415,-134.14003 -9.0415,-201.32564 v -83.128 c 0,-7.58894 1.2145,-23.54756 -9.1115,-25.27299 -14.3513,-2.39799 -15.0553,22.84864 -16.5451,31.76736 -6.1489,36.81973 -13.0031,73.79689 -20.3235,110.40438 -7.2555,36.28538 -13.3083,72.81104 -20.5222,109.10551 -7.2932,36.69452 -13.1459,73.55529 -19.5481,110.40437 -3.4043,19.59483 -9.213,39.86378 -10.0663,59.74826 m 1826.2183,123.39313 c -14.1577,24.14218 30.082,23.86033 42.8629,19.626 32.303,-10.69494 49.7599,-43.89808 55.7347,-75.47763 8.3648,-44.32671 7.3127,-95.39458 -9.7545,-137.68076 -23.7045,-58.68057 -66.5284,-106.35578 -73.0358,-171.4515 -2.5847,-25.84242 3.3122,-64.61904 23.172,-82.99175 11.56,-10.68546 19.1844,-5.53165 32.4588,-4.29343 4.5331,0.42291 9.8065,-0.89948 10.0534,-6.29085 1.026,-21.76654 -34.1085,-21.6703 -46.4218,-14.32087 -27.1725,16.21879 -34.9788,55.41845 -37.8882,84.51714 -9.6897,96.90128 78.9976,164.40122 85.8296,257.17727 2.429,32.96545 0.6105,72.40578 -14.4954,102.61113 -7.001,13.99277 -17.5738,28.26741 -33.446,32.56669 -11.4951,3.1134 -23.7305,-1.85609 -35.0697,-3.99144 M 1585.2962,683.70067 c 0.6468,31.32367 6.3021,65.18274 11.3703,96.11676 1.4652,8.94275 11.7938,25.10465 21.6678,12.79522 5.4241,-6.76195 1.6678,-18.04008 0.7975,-25.78398 -2.6769,-23.84734 -6.1033,-47.61156 -8.9557,-71.43812 -11.5041,-96.09208 -22.1614,-192.18285 -32.4576,-288.35026 -3.103,-28.9857 -6.6983,-57.8467 -6.71,-87.02463 0,-8.32475 -0.9741,-22.62601 -12.9887,-21.43339 -4.4071,0.43746 -21.8432,2.25108 -24.4968,5.33176 -4.4629,5.18082 -3.8654,17.37492 -4.8305,23.89488 -3.1316,21.15608 -4.3461,42.50179 -7.3932,63.64488 -6.2372,43.28241 -17.3166,85.59586 -25.0748,128.58863 -9.4428,52.33686 -16.6321,104.99716 -27.0477,157.16388 -5.3722,26.9062 -10.1923,53.89422 -16.8503,80.53025 -2.0107,8.03874 -8.8142,22.25882 -2.6641,29.4468 12.6043,14.72794 22.4134,-4.19927 26.0671,-15.15918 7.3037,-21.90422 9.8598,-46.04252 12.8992,-68.84037 0.9001,-6.76064 -0.5456,-20.44819 6.1086,-24.64226 7.2322,-4.56035 20.4534,-0.0624 28.2129,0.89103 20.4235,2.50813 41.7809,2.64451 62.346,4.2681 m 442.9164,106.50776 c 7.6373,0.0636 15.3786,0.64294 20.782,6.49437 8.7336,-7.33864 5.0851,-19.69744 4.1174,-29.87413 -2.0289,-21.31194 -2.8185,-43.54089 -2.8185,-64.94375 0,-64.17222 -1.0431,-128.22494 -3.846,-192.2335 -1.4782,-33.77075 1.1988,-69.11444 -3.1991,-102.61113 -3.4161,-26.01647 -2.0471,-54.2696 -2.0471,-80.53025 0,-12.40023 3.7602,-25.69955 -11.6899,-27.95283 -22.6419,-3.30239 -12.99,41.26889 -12.9887,53.93033 0,44.65402 7.7932,89.12361 7.7932,133.78412 0,14.77211 4.8968,38.72596 -11.7093,46.28802 -15.093,6.87235 -38.6533,3.48358 -54.5333,1.00403 -5.78,-0.90272 -13.6369,-1.45085 -16.849,-7.16849 -5.515,-9.81431 -1.3352,-31.57046 -1.3352,-42.72131 0,-38.05184 2.5977,-76.21668 2.5977,-114.301 0,-16.34374 1.0027,-33.34342 -2.9082,-49.35725 -1.7028,-6.97054 -5.4669,-15.03993 -13.972,-14.07019 -11.7197,1.33615 -10.3962,15.98045 -10.3962,24.46119 0,27.1309 0.8599,54.76447 2.7134,81.82913 3.0173,44.04615 -0.4196,87.33766 -0.1091,131.18638 0.3169,44.85405 3.2095,90.13673 1.2417,135.08301 -1.0612,24.21492 -1.5327,48.43115 -1.243,72.737 0.1208,10.22344 0.8624,25.63199 8.2998,33.47461 6.458,6.8113 15.215,3.32901 17.9323,-4.90456 4.1576,-12.59778 1.0403,-27.20623 1.0391,-40.25993 0,-47.76873 -6.0424,-95.0257 -3.9474,-142.87626 0.4157,-9.49996 -5.0279,-39.76375 4.1396,-45.04758 7.1438,-4.11743 17.1257,-0.64294 24.4864,0.88193 13.4758,2.78999 25.3345,3.54594 38.9662,2.87312 5.1592,-0.25458 11.2937,1.09495 13.5227,6.29824 3.9238,9.15967 0.9533,19.16491 0.8286,28.49992 -0.1923,14.51233 1.2352,29.49615 1.2352,44.16175 0,51.90435 1.6717,104.04899 3.8967,155.86501 m 375.3748,-238.99301 c 18.9636,-2.39642 35.7581,4.80583 54.5528,5.17602 7.1958,0.14157 18.0804,-3.8122 23.9513,2.05092 10.4948,10.49751 2.0912,40.18719 3.7017,53.82019 3.0654,26.00607 0.6105,53.04865 0.9222,79.23137 0.3897,32.87713 2.5978,65.78283 2.5978,98.71451 l 23.3797,6.49437 c 6.9361,-11.41971 2.7277,-27.52056 1.5197,-40.26512 -2.247,-23.58627 -1.7275,-47.77393 -2.7666,-71.43813 -1.4157,-32.41473 1.3119,-65.0009 -0.1039,-97.41563 -2.6107,-59.51705 -6.4424,-119.67835 -6.4424,-179.24476 0,-27.79982 1.5846,-58.12855 -1.6756,-85.72575 -1.2858,-10.90094 0.6105,-27.93997 -16.5087,-24.06322 -15.9372,3.60841 -9.157,43.18396 -8.014,55.23622 4.2213,44.41374 6.897,90.47574 8.0011,135.083 0.3636,15.19944 3.9096,38.28694 -14.2747,44.43582 -15.4825,5.23706 -36.0827,2.55099 -51.955,0.27276 -5.3254,-0.76503 -13.6329,-0.97156 -16.849,-6.10341 -5.5228,-8.81287 -1.3353,-30.91323 -1.3353,-41.20292 0,-35.96844 1.2989,-71.79661 1.2989,-107.80662 0,-19.0558 2.325,-39.80143 -2.1781,-58.44938 -1.8704,-7.74675 -7.6803,-17.99929 -17.2478,-12.9516 -11.0028,5.80428 -6.5555,21.35532 -6.5515,31.13585 0.013,29.95596 -0.5534,61.22767 3.3459,90.92126 4.8487,36.92831 -1.4288,73.74622 -1.6054,110.40438 -0.2429,50.55481 0.8572,101.28886 0.8572,151.96837 0,21.64706 -0.1039,43.2967 0,64.94376 0.044,9.20512 1.1157,22.45625 8.4791,29.02596 15.0137,13.3953 18.7959,-13.47973 18.7959,-22.53159 0,-36.69841 -2.3418,-73.72285 -3.9472,-110.40438 -1.4846,-33.87986 0.051,-67.43889 0.051,-101.31225 M 1730.7689,325.21116 c 0,65.81919 4.4837,131.83582 8.9752,197.429 3.5251,51.47053 3.0862,103.02678 5.3631,154.56614 1.243,28.12324 2.5016,56.02048 2.5471,84.42687 0.013,8.22448 -0.1845,23.28883 11.6898,22.59913 15.5788,-0.90531 15.5866,-14.6604 15.5866,-26.49575 0,-26.91529 -1.9211,-53.6838 -2.5783,-80.53025 -2.034,-83.00981 -6.1528,-166.55345 -11.8263,-249.38401 -1.6535,-24.14868 -2.4809,-48.5 -2.4809,-72.737 0,-7.14122 -2.5756,-20.70927 1.5315,-26.86334 2.9652,-4.44345 10.7884,-3.03183 15.354,-3.00975 15.1747,0.0731 30.2481,2.62139 45.4605,2.59671 6.7373,-0.0104 18.3661,0.0896 19.0454,-9.10719 1.1495,-15.58352 -34.502,-9.07706 -43.724,-9.07706 -30.2858,0 -60.7276,-3.24407 -90.9212,-5.31175 -12.7056,-0.87012 -29.0974,-4.08158 -41.5576,-0.43902 -8.9726,2.62295 -8.8167,11.45868 -1.2806,15.84511 10.6547,6.20083 23.4616,3.19744 35.0449,4.56411 11.2119,1.32291 22.4849,0.92805 33.7708,0.92805 m 928.6956,-21.42637 c -15.0149,2.04508 -23.1329,15.20943 -28.7571,27.92075 -11.7678,26.62564 -13.7031,55.97112 -17.4568,84.42687 -4.8838,37.13484 -3.1433,75.57245 -3.1433,113.00213 0,63.10195 0.8702,128.00154 16.2099,189.63576 9.4818,38.15446 29.3157,89.41716 77.3091,84.20087 49.3053,-5.35656 62.281,-76.42191 67.8922,-115.37387 7.1308,-49.51961 5.4423,-98.30666 4.8448,-148.07175 -0.5975,-50.63795 1.7664,-99.63931 -11.3392,-149.37064 -6.1827,-23.42651 -16.8854,-58.54679 -39.3169,-71.44514 -9.7676,-5.61906 -24.1721,-4.92689 -35.0696,-7.64998 -9.6247,-2.40526 -21.1457,-8.64064 -31.1731,-7.275 m 244.1885,21.42637 c 0,117.38064 11.3912,234.621 14.3006,351.99514 0.7015,28.01413 2.5848,56.12309 2.5848,84.42687 0,8.30371 -0.5844,23.35118 11.6899,22.59783 15.5086,-0.95077 15.5865,-14.74483 15.5865,-26.49445 0,-26.46718 -1.9353,-52.82395 -2.5848,-79.23137 -2.0262,-83.00722 -6.1436,-166.55606 -11.8198,-249.38401 -1.6885,-24.5981 -2.4808,-49.34427 -2.4808,-74.03588 0,-7.14122 -2.5718,-20.70797 1.5327,-26.86334 2.9614,-4.44384 10.7807,-3.03183 15.3527,-3.00975 15.1709,0.0731 30.2508,2.62139 45.4606,2.59671 6.7412,-0.0104 18.3661,0.0896 19.0415,-9.10719 1.156,-15.58352 -34.4981,-9.07706 -43.7201,-9.07706 -30.2898,0 -60.7224,-3.24368 -90.9213,-5.31175 -12.703,-0.87012 -29.0948,-4.08158 -41.5639,-0.43902 -9.0533,2.64646 -9.0792,11.94497 -1.247,16.1419 10.7937,5.77051 23.4447,2.90195 35.0177,4.26732 11.2093,1.32291 22.4835,0.92805 33.7707,0.92805 m -228.602,1.6888 c 40.1742,-5.79117 65.3854,31.50785 69.7626,67.15158 4.4292,36.02819 3.2082,72.87988 5.6891,109.1055 4.0915,59.75345 8.4557,120.99151 -1.3119,180.54363 -5.0266,30.66385 -12.3263,94.12428 -52.0589,98.47032 -14.7552,1.6145 -25.2112,-8.98692 -32.381,-20.53782 -13.5343,-21.79901 -17.9504,-47.83756 -22.0678,-72.737 -8.3258,-50.35609 -12.6771,-104.88156 -10.443,-155.865 1.6886,-38.49736 7.7413,-77.09863 7.7413,-115.59988 0,-29.96765 -4.7279,-84.79316 35.0696,-90.53133 m -1120.9291,28.18533 c 2.1301,103.16055 25.1449,205.87429 27.2764,309.13225 -20.8613,0 -41.6485,-0.32471 -62.3461,-3.14977 -5.915,-0.8079 -17.1698,-0.61176 -20.7456,-6.30473 -3.1601,-5.03055 -0.3572,-14.86563 0.3338,-20.41962 2.2198,-17.84005 5.5735,-35.60996 8.9779,-53.25388 9.8675,-51.15619 20.4404,-102.1747 30.6573,-153.26725 4.3811,-21.90813 5.3838,-53.09282 15.8463,-72.737 m 449.4107,170.15262 1.2989,1.29888 z"
       id="path15547" />
  </g>
</svg>
