<?xml version="1.0" encoding="UTF-8" standalone="no"?>
<!-- Created with Inkscape (http://www.inkscape.org/) -->

<svg
   version="1.1"
   id="svg3955"
   width="1531.629"
   height="604.47186"
   viewBox="0 0 1531.629 604.47186"
   sodipodi:docname="mathrepaly.svg"
   inkscape:version="1.1.1 (c3084ef, 2021-09-22)"
   xmlns:inkscape="http://www.inkscape.org/namespaces/inkscape"
   xmlns:sodipodi="http://sodipodi.sourceforge.net/DTD/sodipodi-0.dtd"
   xmlns="http://www.w3.org/2000/svg"
   xmlns:svg="http://www.w3.org/2000/svg">
  <defs
     id="defs3959" />
  <sodipodi:namedview
     id="namedview3957"
     pagecolor="#ffffff"
     bordercolor="#666666"
     borderopacity="1.0"
     inkscape:pageshadow="2"
     inkscape:pageopacity="0.0"
     inkscape:pagecheckerboard="0"
     showgrid="false"
     inkscape:zoom="0.26055182"
     inkscape:cx="1299.1657"
     inkscape:cy="627.51433"
     inkscape:window-width="1401"
     inkscape:window-height="847"
     inkscape:window-x="39"
     inkscape:window-y="25"
     inkscape:window-maximized="0"
     inkscape:current-layer="g3961" />
  <g
     inkscape:groupmode="layer"
     inkscape:label="Image"
     id="g3961"
     transform="translate(-31.605872,-88.379054)">
    <path
       style="fill:#000000"
       d="m 1486.5,691.59749 c -8.8425,-3.90319 -9.0905,-0.55458 4.9304,-66.57837 6.3633,-29.96449 11.5696,-55.14519 11.5696,-55.95711 0,-0.81193 -18.8908,-44.4849 -41.9796,-97.05106 -39.781,-90.56924 -41.9284,-95.76035 -41.0015,-99.11715 2.4911,-9.02205 13.6945,-12.26946 20.4463,-5.92653 1.2463,1.17089 16.3353,35.95115 36.0188,83.02388 18.6306,44.55487 34.1385,81.00885 34.462,81.00885 0.3234,0 7.722,-40.8375 16.4412,-90.75 8.7192,-49.9125 16.2858,-91.29045 16.8147,-91.95099 3.0005,-3.74732 15.5428,-2.14445 18.4967,2.36381 2.4553,3.74723 -3.4824,42.9561 -18.6022,122.83718 -3.8518,20.35 -9.7389,52.525 -13.0825,71.5 -15.6868,89.0235 -25.8934,140.92734 -28.2807,143.81594 -3.2804,3.9693 -10.6728,5.23598 -16.2332,2.78155 z M 512.35819,574.04607 c -5.16189,-1.23094 -10.36107,-4.94242 -10.33482,-7.37763 0.081,-7.5104 -5.37079,-176.25709 -5.70657,-176.63407 -0.2281,-0.2561 -8.00716,2.05561 -17.2868,5.13713 -18.79465,6.24121 -19.42702,6.2244 -24.84242,-0.66015 C 446.36733,384.56951 449.21821,381.43896 475,371.65721 496.5,363.5 496.5,363.5 496.12014,311.27063 c -0.41208,-56.65755 -0.37938,-57.05097 4.97105,-59.81779 5.77792,-2.98788 15.08798,-0.72361 17.79092,4.32687 0.68038,1.27131 0.66929,10.17728 -0.034,27.30351 -1.01054,24.60779 -0.49307,62.09285 0.94703,68.60338 0.70487,3.18661 0.70487,3.18661 24.61371,-6.5 27.09841,-10.97885 24.40415,-3.3847 22.95429,-64.69978 -0.72793,-30.78425 -0.95684,-29.87144 7.49091,-29.87144 13.96775,0 14.03358,0.60901 14.03784,129.88462 10e-4,41.28644 1.04382,107.89764 1.67864,107.26281 0.14685,-0.14685 2.3622,-8.14106 4.92299,-17.76491 24.3815,-91.62929 54.52642,-130.87526 100.60645,-130.98054 31.85046,-0.0728 45.37972,56.25058 46.20642,192.36083 0.2146,35.33273 -0.22562,36.86239 -11.02557,38.31097 -10.13075,1.35882 -13.4026,-4.1359 -12.0217,-20.18916 5.73221,-66.63834 -2.70814,-171.9215 -14.79393,-184.53635 -31.58065,-32.96309 -91.96752,72.16923 -106.88437,186.08356 -1.72491,13.17248 -0.69084,11.65761 -9.18609,13.45738 -16.92202,3.58503 -14.8689,15.84745 -17.31631,-103.42259 -2.45049,-119.42045 1.97731,-104.48024 -27.09638,-91.428 -24.1593,10.846 -24.1593,10.846 -23.55033,33.346 3.73748,138.09008 2.9022,172.80337 -4.13625,171.89764 -0.4375,-0.0563 -2.20926,-0.43951 -3.93726,-0.85157 z m 302.40407,-1.11931 c -3.99392,-2.32689 -3.96118,-1.49084 -5.33876,-136.33263 -2.10374,-205.92162 -3.16382,-183.24006 8.61708,-184.37205 9.22678,-0.88658 11.60297,2.25891 13.30776,17.61613 1.37796,12.41315 0.82612,12.11644 12.98877,6.98385 36.58666,-15.43942 48.94481,-18.78581 72.22771,-19.5581 36.99816,-1.22723 75.43835,14.23741 78.00958,31.38358 2.90867,19.39643 -19.94408,40.13461 -94.5744,85.82337 -44.03845,26.96039 -56.95573,35.55611 -62.76153,41.76428 -2.26153,2.41826 -2.26153,2.41826 84.80666,54.7977 83.82147,50.42624 87.04487,52.47431 86.44207,54.92328 -1.6541,6.72004 -8.1667,13.05917 -13.38508,13.02857 -1.58892,-0.009 -34.33615,-18.29134 -84.10212,-46.95228 -81.5,-46.93702 -81.5,-46.93702 -81.75751,14.86042 -0.25752,61.79744 -0.25752,61.79744 -5.13533,64.45228 -5.30123,2.88529 -6.70068,3.12214 -9.3449,1.5816 z M 835.38197,389.12738 C 837.09688,388.09744 848.175,382.19109 860,376.00215 959.85915,323.73819 989.02805,293.68625 953.33054,279.84619 921.89041,267.65673 852.1028,283.33265 834.38293,306.5646 831.68243,310.10514 828.91962,391 831.4992,391 c 0.4206,0 2.16785,-0.84268 3.88277,-1.87262 z M 273.05643,570.14505 c -2.99397,-1.54643 -5.79876,-3.4492 -6.23286,-4.22838 C 266.38946,565.1375 260.85704,504.875 254.52931,432 241.23906,278.93946 242.32793,289.52651 240.27837,293.43823 c -1.92013,3.66471 -6.81822,19.33295 -18.86274,60.33906 -24.50471,83.42738 -40.16613,119.93234 -52.68963,122.81341 -2.77011,0.63727 -9.726,-4.92764 -9.726,-7.78109 0,-0.57639 -1.53548,-3.58185 -3.41217,-6.6788 C 150.41762,453.59887 141.33087,434.97942 124.29039,398 93.745267,331.71424 72.840218,296.1747 59.947566,288.61427 54.904932,285.6572 56.510875,313.1785 67.454077,417.25451 82.041902,555.99294 82.11384,568 68.357239,568 56.221159,568 54.324611,555.67218 46.973072,429 42.078508,344.66322 38.802716,306.34001 33.504494,271.43232 29.254662,243.43201 31.488172,239.0785 46.907845,245.30679 76.150709,257.1185 95.707274,283.70279 126.4995,353.5 c 23.508,53.28593 40.5001,85.5 45.09907,85.5 3.48574,0 7.74,-11.96904 42.99059,-120.9507 23.18279,-71.67251 23.47676,-72.42127 29.03655,-73.9564 13.71699,-3.78744 13.31343,-5.57212 22.36519,98.9071 8.68399,100.23434 14.54506,152.55921 22.53724,201.20185 4.79256,29.16889 1.49112,34.70481 -15.47171,25.9432 z M 1213.5,569.62018 c -6.7722,-3.04054 -6.1683,10.88644 -6.8665,-158.37018 -0.42,-101.84798 0.3597,-152.58594 0.3672,-153.25 0.3091,-27.54723 1.1279,-38.88147 -1.7507,-40.38504 -14.5059,-7.57683 -14.9347,-28.82536 -0.75,-37.16103 24.0588,-14.13817 45.4956,21.36293 22.0678,36.54607 -3.8575,2.5 -3.8575,2.5 -3.2481,28.5 2.5264,107.77582 2.8972,319.73685 0.5634,322.03292 -3.0988,3.04862 -6.6513,3.76276 -10.3831,2.08726 z m 170.3795,-0.73928 c -3.0094,-1.10389 -8.1837,-11.25777 -9.9139,-19.45481 -0.5719,-2.70935 -1.4552,-21.12609 -1.9628,-40.92609 -1.215,-47.38424 -0.2696,-45.45805 -11.42,-23.26612 -30.5517,60.80465 -60.5364,87.79564 -85.3529,76.83101 -59.5467,-26.3094 1.7897,-220.77381 68.0407,-215.72011 4.5261,0.34527 10.97,0.81022 14.3197,1.03322 17.7986,1.18496 21.285,9.45065 21.9852,52.122 0.6745,41.10893 2.9952,61.35165 12.4387,108.5 9.3691,46.77658 9.5031,54.13181 1.0879,59.7368 -3.6681,2.44322 -5.1722,2.62981 -9.2226,1.1441 z m -87.2691,-28.36256 c 14.336,-5.98999 37.2079,-40.81653 57.331,-87.2969 7.514,-17.35575 8.0896,-72.43988 0.8356,-79.97411 -23.9597,-24.88558 -65.9215,30.97142 -80.9477,107.75267 -7.8481,40.10223 2.782,67.87449 22.7811,59.51834 z M 1097,566.9341 c -32.2362,-3.75541 -47.5838,-24.33586 -56.9995,-76.4341 -1.6898,-9.35 -3.2819,-17.9809 -3.5379,-19.17978 -0.4163,-1.94967 -0.8084,-2.08024 -3.714,-1.23686 -5.8348,1.69361 -18.1125,-1.19765 -22.4701,-5.29147 -5.4572,-5.12679 0.2369,-13.14951 11.5947,-16.33635 8.5014,-2.38538 9.2591,-3.53989 10.3022,-15.69743 4.2914,-50.01978 11.9153,-69.4135 32.0491,-81.52611 27.9964,-16.84286 77.9591,2.98004 87.8838,34.86828 3.9543,12.70512 -8.5537,22.17343 -79.1083,59.88313 -8.525,4.55641 -15.9912,8.67008 -16.5916,9.14149 -2.165,1.69986 5.5484,43.85963 10.7497,58.7556 22.5662,64.6279 92.271,31.29501 101.308,-48.44564 1.6908,-14.91895 15.4922,-11.86414 16.3673,3.62273 2.7875,49.33143 -45.2302,102.83964 -87.8334,97.87651 z m 35.9957,-178.20408 c 0.014,-2.45302 -15.2177,-15.93728 -21.0814,-18.66318 -33.4176,-15.53502 -56.9143,6.11418 -56.9143,52.43929 0,11.33019 0,11.33019 38.9957,-10.83797 21.4476,-12.19249 38.9976,-22.51465 39,-22.93814 z M 441.73837,565.91339 c -7.36431,-4.28821 -9.72027,-17.33892 -10.72551,-59.41339 -1.11561,-46.69387 -0.68722,-45.5296 -9.87816,-26.84646 -65.35114,132.84439 -145.92093,93.18387 -97.20478,-47.84909 20.0353,-58.00207 52.68117,-93.27547 81.42551,-87.97912 3.50634,0.64607 8.63082,1.17467 11.38774,1.17467 17.53623,0 20.99223,8.68539 21.81508,54.82417 0.73784,41.37251 3.67527,64.65553 14.8593,117.77937 4.96505,23.58387 6.15826,39.34252 3.30827,43.69216 -2.95242,4.50596 -10.94847,6.96957 -14.98745,4.61769 z m -85.03946,-28.54625 c 13.96623,-6.52249 38.0061,-43.94127 57.20077,-89.03469 5.38689,-12.65525 6.54784,-68.42192 1.58218,-76.00048 -12.34521,-18.84117 -37.46293,-4.5219 -57.32784,32.68184 -36.06109,67.53656 -36.95598,148.93291 -1.45511,132.35333 z M 1135.4697,316.45289 C 1063.4888,271.26194 1045.0893,196.09725 1096.0501,128 1118.4325,98.09106 1150,78.148927 1150,93.91821 c 0,3.68671 -1.2536,5.06609 -9.729,10.70546 -78.4034,52.16781 -78.5497,148.0861 -0.271,198.10262 12.1176,7.74258 14,9.5017 14,13.08299 0,7.80896 -6.7442,8.0432 -18.5303,0.64361 z m 143.7528,2.99041 c -5.7914,-4.05648 -3.0901,-8.89858 9.7775,-17.52619 76.4225,-51.24057 77.317,-141.86659 1.7107,-195.2153 -9.1979,-6.4902 -10.7582,-8.82107 -9.0865,-13.57443 2.2523,-6.404352 6.7654,-5.383142 20.1578,4.56125 81.6897,60.65751 77.9757,161.04947 -7.2076,217.40623 -9.4,6.21896 -11.7365,6.88077 -15.3519,4.34844 z m -123.8236,-25.04158 c -76.1966,-40.41289 -78.1158,-135.30493 -3.2729,-178.76049 13.7536,-7.98564 14.584,2.85009 0.9835,12.83261 -62.8502,46.13078 -60.2937,115.46195 4.8905,154.54066 8.4934,5.09191 10.3992,9.19164 5.7775,12.4288 -2.8396,1.98891 -2.6112,2.0173 -8.3786,-1.04158 z m 109.5513,-1.49486 c -2.0386,-3.809 -0.3109,-6.30115 8.5323,-12.30812 62.6706,-42.57044 62.805,-110.35427 0.2592,-153.01496 -4.9343,-3.36554 -5.7417,-4.35687 -5.7417,-7.05 0,-7.51489 5.2879,-7.41883 15.6634,0.28454 45.4243,33.72548 60.8516,70.84882 36.7785,121.71738 -13.1833,27.85743 -49.768,61.06617 -55.4917,50.37116 z M 1165,266.87325 c -52.6609,-33.27966 -52.8692,-90.75335 -0.3809,-124.95083 11.2948,-7.3589 15.4276,-0.42408 4.2648,7.15643 -48.0945,32.66036 -46.6813,82.133 2.6161,112.01035 5.9898,3.63021 7.0003,5.10742 5.4612,7.98324 -1.5636,2.92159 -4.7997,2.32658 -11.9612,-2.19919 z m 88.5714,2.55532 c -2.9284,-2.92846 -1.8302,-5.17881 4.6786,-9.58649 46.5719,-31.53807 49.0798,-72.57967 5.0688,-107.45678 -12.3927,-9.82075 -11.0498,-18.03075 1.5497,-9.47458 51.3134,34.84623 50.3321,90.272 -1.8282,123.98487 -7.1905,4.64738 -7.3199,4.682 -9.4689,2.53298 z"
       id="path4165"
       sodipodi:nodetypes="ssssssssssssssssssssssssssssscsssssssssssssssssssssssssscsssssssssssssssssssssssssssssssssssssscsssssssssssssssssssssssscsssssssssssssssssssssssssssscsscsscsssscsssssssssssssssssssssssssss" />
  </g>
</svg>
