<?xml version="1.0" encoding="UTF-8" standalone="no"?>
<!-- Created with Inkscape (http://www.inkscape.org/) -->

<svg
   width="132.26686mm"
   height="21.166676mm"
   viewBox="0 0 132.26686 21.166676"
   version="1.1"
   id="svg5"
   inkscape:version="1.1.1 (c3084ef, 2021-09-22)"
   sodipodi:docname="logo1.svg"
   xmlns:inkscape="http://www.inkscape.org/namespaces/inkscape"
   xmlns:sodipodi="http://sodipodi.sourceforge.net/DTD/sodipodi-0.dtd"
   xmlns="http://www.w3.org/2000/svg"
   xmlns:svg="http://www.w3.org/2000/svg">
  <sodipodi:namedview
     id="namedview7"
     pagecolor="#ffffff"
     bordercolor="#666666"
     borderopacity="1.0"
     inkscape:pageshadow="2"
     inkscape:pageopacity="0.0"
     inkscape:pagecheckerboard="0"
     inkscape:document-units="mm"
     showgrid="false"
     inkscape:zoom="0.56954707"
     inkscape:cx="151.87507"
     inkscape:cy="367.83615"
     inkscape:window-width="1399"
     inkscape:window-height="847"
     inkscape:window-x="39"
     inkscape:window-y="25"
     inkscape:window-maximized="0"
     inkscape:current-layer="layer1" />
  <defs
     id="defs2" />
  <g
     inkscape:label="Layer 1"
     inkscape:groupmode="layer"
     id="layer1"
     transform="translate(-19.249722,-25.739223)">
    <path
       style="fill:#000000;stroke-width:0.0851069"
       d="m 133.25091,46.884172 c -1.28473,-0.197318 -2.91163,-0.889708 -3.61912,-1.540259 l -0.44406,-0.408308 0.57315,-1.147001 c 0.31523,-0.630852 0.58468,-1.159682 0.59877,-1.175187 0.0141,-0.01549 0.24866,0.153494 0.52127,0.375543 1.9059,1.552369 4.96942,1.650734 6.27863,0.201592 0.52914,-0.585686 0.67431,-1.008969 0.71365,-2.080882 l 0.0344,-0.936175 -0.36367,0.542464 c -1.09171,1.62842 -3.25395,2.161828 -5.15915,1.272699 -0.57902,-0.270223 -1.26081,-0.980176 -1.56447,-1.629095 -0.47228,-1.009232 -0.50248,-1.342796 -0.5041,-5.569107 l -9.9e-4,-3.8511 h 1.65959 1.65959 l 0.003,3.595783 c 0.004,3.880471 0.0106,3.944646 0.46642,4.542243 0.50021,0.655797 1.64161,0.854581 2.47682,0.431353 0.54693,-0.277149 0.90287,-0.683343 1.12945,-1.288927 0.17088,-0.456731 0.17894,-0.631363 0.17894,-3.879357 l -2e-5,-3.401095 h 1.66352 1.66353 l -0.0283,5.680906 c -0.0252,5.066606 -0.0441,5.736131 -0.17488,6.191553 -0.44222,1.540651 -1.40366,2.705634 -2.79147,3.382507 -1.17062,0.570938 -1.66367,0.675852 -3.31114,0.704576 -0.77235,0.01349 -1.51917,0.0069 -1.6596,-0.01473 z M 79.439481,45.513973 c -1.802315,-2.449251 -2.937867,-6.204386 -2.927525,-9.680948 0.0078,-2.634926 0.633537,-5.287415 1.806846,-7.659657 0.460062,-0.930171 1.431082,-2.383003 1.592714,-2.383003 0.03642,0 0.192525,0.09888 0.346936,0.219721 l 0.280749,0.219714 -0.573927,0.844123 c -2.108236,3.100771 -3.074601,7.602599 -2.425986,11.30152 0.447051,2.549461 1.313803,4.785318 2.539665,6.551287 l 0.463752,0.668087 -0.284467,0.243357 c -0.156462,0.133844 -0.309577,0.244913 -0.34025,0.246813 -0.03071,0.0021 -0.246001,-0.255055 -0.478507,-0.571014 z m 5.236974,0.216155 c -1.355953,-1.689409 -2.388249,-4.250134 -2.926202,-7.258778 -0.237299,-1.327091 -0.214799,-4.003326 0.04545,-5.404315 0.516898,-2.782862 1.679019,-5.580715 2.901526,-6.985517 l 0.297873,-0.342295 0.316167,0.263351 0.316166,0.263344 -0.372348,0.485635 c -1.167002,1.522067 -2.123473,3.902234 -2.657591,6.613356 -0.233464,1.185046 -0.215742,3.931364 0.0338,5.234104 0.473619,2.472756 1.565746,5.156626 2.663437,6.545304 l 0.327505,0.414325 -0.185895,0.162556 c -0.459037,0.401402 -0.444991,0.401231 -0.759856,0.0089 z m 58.001955,0.103371 -0.27474,-0.249953 0.50473,-0.704646 c 1.57631,-2.200681 2.55651,-5.256845 2.69653,-8.407574 0.14564,-3.276649 -0.92586,-7.058685 -2.69643,-9.517581 l -0.51052,-0.708977 0.19248,-0.164806 c 0.45496,-0.389581 0.44682,-0.392783 1.04417,0.410092 1.46178,1.964642 2.49397,4.969058 2.77128,8.06636 0.32946,3.679711 -0.82081,8.157118 -2.77132,10.787341 -0.30372,0.409582 -0.5813,0.743567 -0.61685,0.742197 -0.0355,-0.0014 -0.18823,-0.114973 -0.33933,-0.252453 z m 5.09131,1.72e-4 -0.28986,-0.247853 0.33408,-0.450823 c 1.65734,-2.236573 2.67364,-5.242146 2.88636,-8.536015 0.2006,-3.106203 -0.87656,-6.982543 -2.65731,-9.562829 l -0.54988,-0.796787 0.28323,-0.242318 c 0.15578,-0.13328 0.30446,-0.243881 0.33038,-0.245781 0.0452,-0.0035 0.71617,0.868164 1.07847,1.400809 0.6239,0.917227 1.41369,2.833331 1.79914,4.364838 1.21498,4.827626 0.30839,10.305067 -2.29559,13.869392 -0.28213,0.386174 -0.53911,0.700577 -0.57106,0.698676 -0.032,-0.0021 -0.18854,-0.114992 -0.34796,-0.251309 z M 57.377785,42.301169 c -1.146066,-0.259923 -2.157129,-0.973072 -2.594181,-1.8298 -0.462291,-0.906205 -0.489242,-1.118042 -0.533261,-4.191535 l -0.04113,-2.872369 h -1.011482 -1.01148 V 32.17341 30.939356 h 1.021287 1.021286 v -1.530309 c 0,-1.517124 0.0017,-1.530695 0.191492,-1.574621 0.650536,-0.150541 2.980969,-0.639789 3.047491,-0.639789 0.04777,0 0.0802,0.757206 0.0802,1.872356 v 1.872363 h 2.212789 2.212789 v 1.234054 1.234055 h -2.219536 -2.219531 l 0.02802,2.489383 c 0.02707,2.405428 0.03469,2.502961 0.226143,2.891668 0.387774,0.787348 1.019776,1.091396 1.946819,0.936581 0.625484,-0.104447 1.143707,-0.423498 1.512302,-0.93106 0.14173,-0.195162 0.278782,-0.35718 0.304561,-0.360045 0.05021,-0.0055 0.271541,0.426052 0.733017,1.429465 l 0.287965,0.62615 -0.577509,0.565355 c -0.574794,0.562698 -1.177521,0.921957 -1.966114,1.171903 -0.587497,0.186212 -1.985764,0.225394 -2.651931,0.07431 z m 45.644305,0.04764 c -2.11418,-0.336477 -3.899664,-1.536623 -4.692741,-3.154289 -0.194991,-0.39774 -0.420082,-0.972093 -0.500196,-1.276355 -0.198233,-0.752869 -0.198233,-2.396092 0,-3.148968 0.662572,-2.516317 2.659177,-4.094146 5.355807,-4.232459 1.99914,-0.102539 3.55317,0.44517 4.72224,1.664319 0.51147,0.533395 1.12039,1.685972 1.31179,2.483035 0.12281,0.511432 0.15588,2.115507 0.0513,2.489383 l -0.0655,0.234049 h -4.08354 c -2.55951,0 -4.08352,0.03057 -4.08352,0.08192 0,0.29412 0.4187,1.115433 0.74822,1.467725 1.36866,1.463207 4.16898,1.371933 5.69168,-0.18551 l 0.26435,-0.270381 0.90324,0.701947 c 0.49679,0.38607 0.90324,0.751774 0.90324,0.812671 0,0.06086 -0.22021,0.334728 -0.48937,0.608517 -0.71718,0.729543 -1.70972,1.265133 -2.95747,1.59593 -0.58812,0.155918 -2.42554,0.232569 -3.07961,0.128468 z m 2.93366,-7.345562 c -0.24456,-1.363431 -1.07689,-2.129057 -2.32216,-2.136094 -0.7312,-0.0042 -1.23539,0.201222 -1.74482,0.71065 -0.37877,0.378778 -0.71608,1.02391 -0.81203,1.553098 l -0.0579,0.319155 h 2.50852 2.50852 z M 41.511664,42.25854 c -1.747173,-0.313303 -2.808299,-1.235026 -3.033796,-2.635236 -0.222996,-1.38467 0.512018,-2.608576 1.991162,-3.315584 0.888266,-0.424577 1.773298,-0.633661 3.632023,-0.85805 1.783167,-0.215267 2.005325,-0.276467 2.171715,-0.598225 0.365302,-0.706414 -0.207241,-1.614684 -1.18456,-1.879158 -0.487596,-0.131944 -1.384232,-0.05212 -1.800178,0.16029 -0.604906,0.308896 -1.229552,1.092829 -1.229552,1.543102 0,0.09272 -0.03075,0.187589 -0.06834,0.210811 -0.06066,0.03746 -2.466792,-0.301054 -2.985219,-0.420013 -0.188031,-0.04317 -0.198634,-0.07495 -0.148775,-0.446341 0.14532,-1.082439 1.068512,-2.223381 2.279253,-2.816833 1.106391,-0.542319 1.607857,-0.645669 3.135864,-0.646337 1.522594,-6.47e-4 1.941089,0.07998 2.978754,0.574044 1.233562,0.587332 2.057895,1.634184 2.290765,2.909128 0.05283,0.289253 0.09224,1.584211 0.09224,3.031109 0,2.42673 0.007,2.534934 0.176391,2.750352 0.226356,0.287766 0.551859,0.291477 0.965156,0.01102 l 0.314227,-0.213243 0.218542,0.48984 c 0.1202,0.269418 0.288873,0.651921 0.374831,0.850023 l 0.156286,0.360182 -0.27292,0.204568 c -0.468099,0.350873 -0.942539,0.548363 -1.672855,0.696349 -1.716836,0.347871 -3.160198,-0.399819 -3.391898,-1.757074 l -0.06251,-0.366131 -0.325234,0.443057 c -0.552193,0.752241 -1.333818,1.280818 -2.331828,1.576921 -0.564746,0.167554 -1.721799,0.239666 -2.269553,0.141438 z m 3.160669,-2.393744 c 0.974996,-0.358385 1.641509,-1.310451 1.641509,-2.344771 0,-0.537912 0.10117,-0.517119 -1.574486,-0.32363 -1.480845,0.170989 -2.200403,0.391489 -2.60815,0.799232 -0.518595,0.518592 -0.536904,0.95535 -0.06268,1.495457 0.482976,0.550078 1.663179,0.719463 2.603815,0.373712 z m 74.233787,2.388656 c -1.31936,-0.194247 -2.3549,-0.899065 -2.82688,-1.924042 -0.26608,-0.577852 -0.2701,-1.768111 -0.008,-2.336551 0.51822,-1.123412 1.81915,-1.932173 3.6782,-2.286647 0.45119,-0.08603 1.40803,-0.223418 2.12631,-0.305309 1.69342,-0.193055 1.84334,-0.277452 1.84233,-1.037211 -6.9e-4,-0.495411 -0.0191,-0.542725 -0.33895,-0.870293 -0.76498,-0.783417 -2.28861,-0.797152 -3.18633,-0.02871 -0.35772,0.30619 -0.76941,1.016096 -0.77111,1.329666 -6.9e-4,0.125431 -0.0504,0.144172 -0.27744,0.104632 -0.15213,-0.02651 -0.86164,-0.137735 -1.57669,-0.247207 -0.71506,-0.109471 -1.32456,-0.223493 -1.35444,-0.253388 -0.0842,-0.0842 0.21601,-1.071651 0.46475,-1.528705 0.32168,-0.591022 1.18064,-1.35804 1.91256,-1.707825 1.05599,-0.504657 1.55433,-0.602087 3.08577,-0.603243 1.17532,-6.89e-4 1.45762,0.0263 2.06242,0.19881 1.54218,0.439836 2.66055,1.455856 3.1004,2.816683 0.16404,0.507543 0.18338,0.801553 0.21853,3.322792 0.0443,3.175688 0.0497,3.202051 0.63562,3.123452 0.18714,-0.02506 0.42513,-0.12537 0.52885,-0.222827 0.10374,-0.09746 0.20941,-0.177186 0.2348,-0.177186 0.0545,0 0.75136,1.563124 0.75136,1.685546 0,0.144014 -0.82639,0.622294 -1.38314,0.800506 -0.70457,0.225524 -1.81989,0.244231 -2.41343,0.04049 -0.78655,-0.270002 -1.30547,-0.8413 -1.52183,-1.675473 l -0.0994,-0.382985 -0.13345,0.255323 c -0.22862,0.437446 -1.12966,1.223052 -1.71914,1.4989 -0.89461,0.418636 -1.97991,0.565706 -3.03185,0.410828 z m 3.33609,-2.439329 c 0.49862,-0.2226 1.06164,-0.780561 1.27549,-1.263998 0.0905,-0.204692 0.18797,-0.622108 0.21649,-0.927596 l 0.0519,-0.555434 h -0.29146 c -0.41812,0 -2.33784,0.244913 -2.79387,0.35643 -0.97615,0.23871 -1.53443,0.728337 -1.53443,1.345716 0,0.544368 0.38921,0.967687 1.10519,1.202017 0.38581,0.126265 1.54253,0.03401 1.97072,-0.157135 z M 19.249732,36.469185 v -5.534132 l 1.335233,0.02348 1.335232,0.02348 0.158601,0.638302 c 0.08723,0.351066 0.198872,0.791211 0.248091,0.978097 l 0.08949,0.339795 0.172724,-0.33667 c 0.255495,-0.498012 1.096557,-1.29692 1.614255,-1.533345 2.083837,-0.951659 4.177415,-0.426436 5.079372,1.274276 0.09893,0.186543 0.179875,0.385348 0.179875,0.441791 0,0.254428 0.174711,0.163113 0.420374,-0.219721 0.746159,-1.162788 1.937389,-1.840149 3.409452,-1.938693 1.693946,-0.113403 2.980777,0.675852 3.497099,2.144878 0.263488,0.749667 0.328173,1.861127 0.330533,5.679447 l 0.0022,3.553233 h -1.659591 -1.659591 v -3.350126 c 0,-1.915036 -0.03708,-3.545639 -0.08656,-3.80656 -0.180963,-0.954214 -0.763776,-1.434456 -1.743244,-1.436446 -0.917527,-0.0021 -1.562297,0.429176 -1.969183,1.316461 -0.141727,0.309054 -0.158591,0.660017 -0.18299,3.80855 l -0.02688,3.468121 h -1.655185 -1.655184 l -0.0065,-3.638339 c -0.007,-3.917395 -0.01419,-3.987409 -0.459533,-4.459252 -0.330898,-0.350591 -0.703356,-0.49835 -1.254681,-0.497772 -0.914137,6.89e-4 -1.506945,0.351549 -1.920577,1.135813 l -0.231113,0.438196 -0.02564,3.510677 -0.02564,3.510677 h -1.65522 -1.655229 z m 44.681312,-2.510342 v -8.044472 l 1.638315,0.02313 1.638315,0.02313 0.04255,3.440732 0.04255,3.440733 0.231982,-0.350653 c 0.836515,-1.264424 2.298571,-1.964657 3.89572,-1.865809 1.609689,0.09963 2.703949,0.878527 3.165945,2.253551 0.187209,0.557183 0.192474,0.673519 0.219437,4.847525 l 0.02763,4.276641 h -1.660542 -1.660541 l -0.02469,-3.687705 -0.02469,-3.687711 -0.258809,-0.418718 c -0.371868,-0.601633 -0.841592,-0.845837 -1.613552,-0.838883 -0.953049,0.0086 -1.669622,0.43812 -2.113233,1.266738 -0.179638,0.335547 -0.185339,0.440433 -0.209491,3.855608 l -0.02483,3.510671 h -1.656045 -1.65604 z M 86.8249,36.471326 v -5.53197 h 1.313122 1.313122 l 0.129107,0.446809 c 0.07101,0.245747 0.17742,0.628732 0.236465,0.851076 0.05901,0.222344 0.128124,0.403496 0.153522,0.402566 0.02541,-6.88e-4 0.161075,-0.196807 0.301501,-0.435303 0.317371,-0.538986 0.854147,-1.020971 1.478824,-1.32787 0.430457,-0.21148 0.568611,-0.235157 1.37227,-0.235157 0.80149,0 0.942516,0.02402 1.367761,0.232858 0.657291,0.322796 1.21196,0.899249 1.564273,1.6257 0.293212,0.604579 0.605585,1.838503 0.489924,1.935244 -0.03312,0.02768 -0.596393,0.192938 -1.251722,0.367184 -0.655322,0.174246 -1.254007,0.334935 -1.330396,0.357084 -0.107964,0.03133 -0.151071,-0.04096 -0.1936,-0.324573 -0.146512,-0.976989 -0.742885,-1.676216 -1.490974,-1.748095 -0.830463,-0.0798 -1.439655,0.313384 -1.844768,1.190644 l -0.246697,0.534214 -0.0263,3.595776 -0.0263,3.595789 h -1.65455 -1.654556 z m 24.27641,-2.489383 0.0217,-8.021361 1.63831,-0.02313 1.63831,-0.02313 v 8.044481 8.044472 h -1.66002 -1.66002 z"
       id="path836" />
  </g>
</svg>
