<?xml version="1.0" encoding="UTF-8" standalone="no"?>
<!-- Created with Inkscape (http://www.inkscape.org/) -->

<svg
   width="134.40732mm"
   height="21.042692mm"
   viewBox="0 0 134.40731 21.042693"
   version="1.1"
   id="svg5"
   inkscape:version="1.1.1 (c3084ef, 2021-09-22)"
   sodipodi:docname="logo2.svg"
   xmlns:inkscape="http://www.inkscape.org/namespaces/inkscape"
   xmlns:sodipodi="http://sodipodi.sourceforge.net/DTD/sodipodi-0.dtd"
   xmlns="http://www.w3.org/2000/svg"
   xmlns:svg="http://www.w3.org/2000/svg">
  <sodipodi:namedview
     id="namedview7"
     pagecolor="#ffffff"
     bordercolor="#666666"
     borderopacity="1.0"
     inkscape:pageshadow="2"
     inkscape:pageopacity="0.0"
     inkscape:pagecheckerboard="0"
     inkscape:document-units="mm"
     showgrid="false"
     inkscape:zoom="5.1429766"
     inkscape:cx="365.44984"
     inkscape:cy="16.819054"
     inkscape:window-width="1399"
     inkscape:window-height="847"
     inkscape:window-x="39"
     inkscape:window-y="25"
     inkscape:window-maximized="0"
     inkscape:current-layer="layer1" />
  <defs
     id="defs2" />
  <g
     inkscape:label="Layer 1"
     inkscape:groupmode="layer"
     id="layer1"
     transform="translate(2.0076869,-25.863257)">
    <g
       id="g1112"
       transform="matrix(0.31408693,0,0,0.31408693,-3.9697879,25.863257)"
       style="stroke-width:0.842389">
      <path
         d="m 39.029,27.169 c 0,-3.1 -2.512,-5.611 -5.612,-5.611 -3.1,0 -5.61,2.511 -5.61,5.611 0,1.801 0.861,3.381 2.182,4.409 L 21.72,66.835 H 45.129 L 36.858,31.578 c 1.309,-1.028 2.171,-2.608 2.171,-4.409 z m -2.208,24.739 h -5.585 l 4.504,-4.61 z M 33.417,37.4 34.855,43.527 H 31.98 Z m -1.985,8.463 h 2.579 l -3.392,3.474 z m -3.821,16.301 1.856,-7.925 h 6.154 l -7.736,7.925 z m 10.027,-6.779 1.588,6.776 H 31.019 Z M 60.59,27.169 c 0,7.257 -2.826,14.08 -7.956,19.215 -0.452,0.456 -1.055,0.688 -1.652,0.688 -0.597,0 -1.195,-0.232 -1.651,-0.688 -0.912,-0.913 -0.912,-2.387 0,-3.299 4.248,-4.252 6.588,-9.904 6.588,-15.912 0,-12.408 -10.091,-22.501 -22.5,-22.501 -12.41,0 -22.5,10.094 -22.5,22.501 0,6.007 2.341,11.655 6.591,15.91 0.914,0.914 0.914,2.388 0,3.301 -0.916,0.914 -2.389,0.914 -3.303,0 C 9.073,41.258 6.247,34.433 6.247,27.174 6.246,12.191 18.436,0 33.417,0 48.398,0 60.59,12.187 60.59,27.169 Z m -19.195,7.977 c 2.131,-2.129 3.306,-4.962 3.306,-7.978 0,-6.221 -5.062,-11.282 -11.283,-11.282 -6.221,0 -11.282,5.062 -11.282,11.282 0,3.016 1.174,5.849 3.305,7.978 0.916,0.913 0.916,2.389 0,3.304 -0.916,0.912 -2.387,0.912 -3.303,0 -3.013,-3.012 -4.674,-7.019 -4.674,-11.281 0,-8.799 7.152,-15.954 15.954,-15.954 8.8,0 15.954,7.155 15.954,15.954 0,4.262 -1.66,8.27 -4.674,11.281 -0.456,0.453 -1.054,0.684 -1.651,0.684 -0.597,0 -1.197,-0.23 -1.651,-0.684 -0.917,-0.913 -0.917,-2.395 -10e-4,-3.304 z"
         id="path1110"
         style="stroke-width:0.842389" />
    </g>
    <g
       id="g1114"
       transform="matrix(0.26458333,0,0,0.26458333,20.409362,50.61725)" />
    <g
       id="g1116"
       transform="matrix(0.26458333,0,0,0.26458333,20.409362,50.61725)" />
    <g
       id="g1118"
       transform="matrix(0.26458333,0,0,0.26458333,20.409362,50.61725)" />
    <g
       id="g1120"
       transform="matrix(0.26458333,0,0,0.26458333,20.409362,50.61725)" />
    <g
       id="g1122"
       transform="matrix(0.26458333,0,0,0.26458333,20.409362,50.61725)" />
    <g
       id="g1124"
       transform="matrix(0.26458333,0,0,0.26458333,20.409362,50.61725)" />
    <g
       id="g1126"
       transform="matrix(0.26458333,0,0,0.26458333,20.409362,50.61725)" />
    <g
       id="g1128"
       transform="matrix(0.26458333,0,0,0.26458333,20.409362,50.61725)" />
    <g
       id="g1130"
       transform="matrix(0.26458333,0,0,0.26458333,20.409362,50.61725)" />
    <g
       id="g1132"
       transform="matrix(0.26458333,0,0,0.26458333,20.409362,50.61725)" />
    <g
       id="g1134"
       transform="matrix(0.26458333,0,0,0.26458333,20.409362,50.61725)" />
    <g
       id="g1136"
       transform="matrix(0.26458333,0,0,0.26458333,20.409362,50.61725)" />
    <g
       id="g1138"
       transform="matrix(0.26458333,0,0,0.26458333,20.409362,50.61725)" />
    <g
       id="g1140"
       transform="matrix(0.26458333,0,0,0.26458333,20.409362,50.61725)" />
    <g
       id="g1142"
       transform="matrix(0.26458333,0,0,0.26458333,20.409362,50.61725)" />
    <g
       id="g1666">
      <path
         style="fill:#000000;stroke-width:0.0851069"
         d="m 57.377785,42.301169 c -1.146066,-0.259923 -2.157129,-0.973072 -2.594181,-1.8298 -0.462291,-0.906205 -0.489242,-1.118042 -0.533261,-4.191535 l -0.04113,-2.872369 h -1.011482 -1.01148 V 32.17341 30.939356 h 1.021287 1.021286 v -1.530309 c 0,-1.517124 0.0017,-1.530695 0.191492,-1.574621 0.650536,-0.150541 2.980969,-0.639789 3.047491,-0.639789 0.04777,0 0.0802,0.757206 0.0802,1.872356 v 1.872363 h 2.212789 2.212789 v 1.234054 1.234055 h -2.219536 -2.219531 l 0.02802,2.489383 c 0.02707,2.405428 0.03469,2.502961 0.226143,2.891668 0.387774,0.787348 1.019776,1.091396 1.946819,0.936581 0.625484,-0.104447 1.143707,-0.423498 1.512302,-0.93106 0.14173,-0.195162 0.278782,-0.35718 0.304561,-0.360045 0.05021,-0.0055 0.271541,0.426052 0.733017,1.429465 l 0.287965,0.62615 -0.577509,0.565355 c -0.574794,0.562698 -1.177521,0.921957 -1.966114,1.171903 -0.587497,0.186212 -1.985764,0.225394 -2.651931,0.07431 z M 41.511664,42.25854 c -1.747173,-0.313303 -2.808299,-1.235026 -3.033796,-2.635236 -0.222996,-1.38467 0.512018,-2.608576 1.991162,-3.315584 0.888266,-0.424577 1.773298,-0.633661 3.632023,-0.85805 1.783167,-0.215267 2.005325,-0.276467 2.171715,-0.598225 0.365302,-0.706414 -0.207241,-1.614684 -1.18456,-1.879158 -0.487596,-0.131944 -1.384232,-0.05212 -1.800178,0.16029 -0.604906,0.308896 -1.229552,1.092829 -1.229552,1.543102 0,0.09272 -0.03075,0.187589 -0.06834,0.210811 -0.06066,0.03746 -2.466792,-0.301054 -2.985219,-0.420013 -0.188031,-0.04317 -0.198634,-0.07495 -0.148775,-0.446341 0.14532,-1.082439 1.068512,-2.223381 2.279253,-2.816833 1.106391,-0.542319 1.607857,-0.645669 3.135864,-0.646337 1.522594,-6.47e-4 1.941089,0.07998 2.978754,0.574044 1.233562,0.587332 2.057895,1.634184 2.290765,2.909128 0.05283,0.289253 0.09224,1.584211 0.09224,3.031109 0,2.42673 0.007,2.534934 0.176391,2.750352 0.226356,0.287766 0.551859,0.291477 0.965156,0.01102 l 0.314227,-0.213243 0.218542,0.48984 c 0.1202,0.269418 0.288873,0.651921 0.374831,0.850023 l 0.156286,0.360182 -0.27292,0.204568 c -0.468099,0.350873 -0.942539,0.548363 -1.672855,0.696349 -1.716836,0.347871 -3.160198,-0.399819 -3.391898,-1.757074 l -0.06251,-0.366131 -0.325234,0.443057 c -0.552193,0.752241 -1.333818,1.280818 -2.331828,1.576921 -0.564746,0.167554 -1.721799,0.239666 -2.269553,0.141438 z m 3.160669,-2.393744 c 0.974996,-0.358385 1.641509,-1.310451 1.641509,-2.344771 0,-0.537912 0.10117,-0.517119 -1.574486,-0.32363 -1.480845,0.170989 -2.200403,0.391489 -2.60815,0.799232 -0.518595,0.518592 -0.536904,0.95535 -0.06268,1.495457 0.482976,0.550078 1.663179,0.719463 2.603815,0.373712 z M 19.249732,36.469185 v -5.534132 l 1.335233,0.02348 1.335232,0.02348 0.158601,0.638302 c 0.08723,0.351066 0.198872,0.791211 0.248091,0.978097 l 0.08949,0.339795 0.172724,-0.33667 c 0.255495,-0.498012 1.096557,-1.29692 1.614255,-1.533345 2.083837,-0.951659 4.177415,-0.426436 5.079372,1.274276 0.09893,0.186543 0.179875,0.385348 0.179875,0.441791 0,0.254428 0.174711,0.163113 0.420374,-0.219721 0.746159,-1.162788 1.937389,-1.840149 3.409452,-1.938693 1.693946,-0.113403 2.980777,0.675852 3.497099,2.144878 0.263488,0.749667 0.328173,1.861127 0.330533,5.679447 l 0.0022,3.553233 h -1.659591 -1.659591 v -3.350126 c 0,-1.915036 -0.03708,-3.545639 -0.08656,-3.80656 -0.180963,-0.954214 -0.763776,-1.434456 -1.743244,-1.436446 -0.917527,-0.0021 -1.562297,0.429176 -1.969183,1.316461 -0.141727,0.309054 -0.158591,0.660017 -0.18299,3.80855 l -0.02688,3.468121 h -1.655185 -1.655184 l -0.0065,-3.638339 c -0.007,-3.917395 -0.01419,-3.987409 -0.459533,-4.459252 -0.330898,-0.350591 -0.703356,-0.49835 -1.254681,-0.497772 -0.914137,6.89e-4 -1.506945,0.351549 -1.920577,1.135813 l -0.231113,0.438196 -0.02564,3.510677 -0.02564,3.510677 h -1.65522 -1.655229 z m 44.681312,-2.510342 v -8.044472 l 1.638315,0.02313 1.638315,0.02313 0.04255,3.440732 0.04255,3.440733 0.231982,-0.350653 c 0.836515,-1.264424 2.298571,-1.964657 3.89572,-1.865809 1.609689,0.09963 2.703949,0.878527 3.165945,2.253551 0.187209,0.557183 0.192474,0.673519 0.219437,4.847525 l 0.02763,4.276641 h -1.660542 -1.660541 l -0.02469,-3.687705 -0.02469,-3.687711 -0.258809,-0.418718 c -0.371868,-0.601633 -0.841592,-0.845837 -1.613552,-0.838883 -0.953049,0.0086 -1.669622,0.43812 -2.113233,1.266738 -0.179638,0.335547 -0.185339,0.440433 -0.209491,3.855608 l -0.02483,3.510671 h -1.656045 -1.65604 z"
         id="path836"
         sodipodi:nodetypes="ssccccccccscsscccccccscsscscsssscssssscsccsccssscccsscscccsscccssssccccccssccsssscsscccsccsccccssccccccccccccccsssscccccscsscccc" />
      <path
         d="m 124.43449,46.884221 c -1.38406,-0.296647 -2.71077,-1.002879 -3.61912,-1.540259 l -0.44406,-0.408308 0.57315,-1.147001 c 0.31524,-0.630852 0.58468,-1.159682 0.59877,-1.175187 0.0141,-0.01549 0.24866,0.153494 0.52127,0.375543 1.9059,1.552369 4.96942,1.650734 6.27863,0.201592 0.52914,-0.585686 0.67431,-1.008969 0.71365,-2.080882 l 0.0344,-0.936175 -0.36367,0.542464 c -1.0917,1.628428 -3.25395,2.161828 -5.15915,1.272699 -0.57902,-0.270223 -1.26081,-0.980176 -1.56447,-1.629095 -0.47228,-1.009232 -0.50248,-1.342796 -0.5041,-5.569107 l -0.001,-3.8511 h 1.65959 1.65959 l 0.003,3.595783 c 0.004,3.880471 0.0106,3.944646 0.46642,4.542243 0.50021,0.655797 1.64161,0.854581 2.47682,0.431353 0.54693,-0.277149 0.90287,-0.683343 1.12945,-1.288927 0.17088,-0.456731 0.21822,-0.589966 0.17894,-3.879357 l -2e-5,-3.401095 h 1.66352 1.66353 l -0.0283,5.680906 c -0.0252,5.066606 -0.0441,5.736131 -0.17488,6.191553 -0.44222,1.540651 -1.40366,2.705634 -2.79147,3.382507 -1.17062,0.570938 -1.66367,0.675852 -3.31114,0.704576 -0.77235,0.01349 -1.51917,0.0069 -1.6596,-0.01473 z M 94.20565,42.348858 c -2.11418,-0.336477 -3.89966,-1.536623 -4.69274,-3.154289 -0.19499,-0.39774 -0.42008,-0.972093 -0.50019,-1.276355 -0.19823,-0.752869 -0.19823,-2.396092 0,-3.148968 0.66257,-2.516317 2.65918,-4.094146 5.3558,-4.232459 1.99914,-0.102539 3.55318,0.44517 4.72224,1.664319 0.511483,0.533395 1.12039,1.685972 1.31179,2.483035 0.12281,0.511432 0.15588,2.115507 0.0513,2.489383 l -0.0655,0.234049 h -4.08353 c -2.55951,0 -4.08353,0.03057 -4.08353,0.08192 0,0.29412 0.41871,1.115433 0.74823,1.467725 1.36866,1.463207 4.094879,1.307659 5.69167,-0.18551 l 0.26436,-0.270381 0.903233,0.701947 c 0.496787,0.386074 0.903237,0.751774 0.903237,0.812671 0,0.06086 -0.22021,0.334728 -0.48937,0.608517 -0.717177,0.729543 -1.70971,1.265133 -2.95747,1.59593 -0.58811,0.155918 -2.42553,0.232569 -3.07961,0.128468 z m 2.93366,-7.345562 c -0.24451,-1.363439 -1.07688,-2.129057 -2.32216,-2.136094 -0.7312,-0.0042 -1.23539,0.201222 -1.74481,0.71065 -0.37877,0.378778 -0.71609,1.02391 -0.81204,1.553098 l -0.0579,0.319155 h 2.50852 2.50852 z m 12.95039,7.250205 c -1.31936,-0.194247 -2.3549,-0.899065 -2.82688,-1.924042 -0.26608,-0.577852 -0.2701,-1.768111 -0.008,-2.336551 0.51822,-1.123412 1.81915,-1.932173 3.6782,-2.286647 0.45119,-0.08603 1.40803,-0.223418 2.12631,-0.305309 1.69342,-0.193055 1.84334,-0.277452 1.84233,-1.037211 -7.9e-4,-0.495411 -0.0191,-0.542725 -0.33895,-0.870293 -0.76498,-0.783417 -2.28861,-0.797152 -3.18633,-0.02871 -0.35772,0.30619 -0.76941,1.016096 -0.77111,1.329666 -7.9e-4,0.125431 -0.0504,0.144172 -0.27744,0.104632 -0.15213,-0.02651 -0.86164,-0.137735 -1.57669,-0.247207 -0.71506,-0.109471 -1.32456,-0.223493 -1.35444,-0.253388 -0.0842,-0.0842 0.21601,-1.071651 0.46475,-1.528705 0.32168,-0.591022 1.18064,-1.35804 1.91256,-1.707825 1.05599,-0.504657 1.55433,-0.602087 3.08577,-0.603243 1.17532,-6.88e-4 1.45762,0.0263 2.06242,0.19881 1.54218,0.439836 2.66055,1.455856 3.1004,2.816683 0.16404,0.507543 0.18338,0.801553 0.21853,3.322792 0.0443,3.175688 0.0497,3.202051 0.63562,3.123452 0.18714,-0.02506 0.42513,-0.12537 0.52885,-0.222827 0.10374,-0.09746 0.20941,-0.177186 0.2348,-0.177186 0.0545,0 0.75136,1.563124 0.75136,1.685546 0,0.144014 -0.82639,0.622294 -1.38314,0.800506 -0.70457,0.225524 -1.81989,0.244231 -2.41343,0.04049 -0.78655,-0.270002 -1.30547,-0.8413 -1.52183,-1.675473 l -0.0994,-0.382985 -0.13345,0.255323 c -0.22863,0.437437 -1.12966,1.223052 -1.71914,1.4989 -0.89461,0.418636 -1.97991,0.565706 -3.03185,0.410828 z m 3.33609,-2.439329 c 0.49862,-0.2226 1.06164,-0.780561 1.27549,-1.263998 0.0905,-0.204692 0.18797,-0.622108 0.21649,-0.927596 l 0.0519,-0.555434 h -0.29146 c -0.41812,0 -2.33784,0.244913 -2.79387,0.35643 -0.97615,0.23871 -1.53443,0.728337 -1.53443,1.345716 0,0.544368 0.38921,0.967687 1.10519,1.202017 0.38581,0.126265 1.54253,0.03401 1.97072,-0.157135 z M 78.008465,36.471375 v -5.53197 h 1.313122 1.313122 l 0.129106,0.446809 c 0.07101,0.245747 0.177421,0.628732 0.236466,0.851076 0.05901,0.222344 0.128124,0.403496 0.153522,0.402566 0.0254,-6.88e-4 0.161075,-0.196807 0.3015,-0.435303 0.317371,-0.538986 0.854147,-1.020971 1.478825,-1.32787 0.430452,-0.21148 0.568612,-0.235157 1.372272,-0.235157 0.80149,0 0.94251,0.02402 1.36776,0.232858 0.65729,0.322796 1.21196,0.899249 1.56427,1.6257 0.29321,0.604579 0.60559,1.838503 0.48992,1.935244 -0.0331,0.02768 -0.59639,0.192938 -1.25172,0.367184 -0.65532,0.174246 -1.254,0.334935 -1.33039,0.357084 -0.10797,0.03133 -0.15107,-0.04096 -0.1936,-0.324573 -0.14652,-0.976989 -0.74289,-1.676216 -1.49098,-1.748095 -0.830461,-0.0798 -1.048893,0.642655 -1.844765,1.190644 l -0.246698,0.534214 -0.0263,3.595776 -0.0263,3.595789 H 79.663046 78.00849 Z m 24.276415,-2.489383 0.0217,-8.021361 1.63832,-0.02313 1.63831,-0.02313 v 8.044481 8.044472 h -1.66002 -1.66003 z"
         style="fill:#666666;fill-opacity:1;stroke:#000000;stroke-width:0;stroke-miterlimit:4;stroke-dasharray:none;stroke-opacity:1"
         id="path1357"
         sodipodi:nodetypes="cccsscsccssscccccsssccccccsscccsscsssccsscccsscsccscsccccscscsscsscssccsccsccsssssccssccccccssssccccccscccsssssscsscccccccccccccccc" />
    </g>
  </g>
</svg>
